<svg width="455" height="335" viewBox="0 0 455 335" fill="none" xmlns="http://www.w3.org/2000/svg">
<mask id="mask0_1_138" style="mask-type:luminance" maskUnits="userSpaceOnUse" x="0" y="0" width="455" height="335">
<path d="M455 0H0V335H455V0Z" fill="white"/>
</mask>
<g mask="url(#mask0_1_138)">
<path d="M455 0H155.163V210.085H455V0Z" fill="#FDF5E3"/>
<path d="M417.342 19.873H185.714V73.104H417.342V19.873Z" fill="#EFB22E"/>
<path d="M417.343 87.299H305.081V178.856H417.343V87.299Z" fill="#E4A111"/>
<path d="M436.093 209.588L338.042 47.297C337.8 47.014 155.141 154.05 155.141 154.05V210.12L436.093 209.588Z" fill="#F9D37D"/>
<path d="M305.081 178.856V87.299H366.185L417.343 178.856H305.081Z" fill="#E4A111"/>
<path d="M353.673 73.132L337.879 46.985L293.258 73.132H353.673Z" fill="#E4A111"/>
<path d="M316.187 58.071L355.641 118.818C357.933 120.849 360.774 122.159 363.807 122.583C366.841 123.007 369.932 122.527 372.694 121.203C382.79 116.682 379.01 105.34 379.01 105.34L341.609 42.883C341.609 42.883 334.582 40.143 325.722 46.637C316.862 53.132 316.187 58.071 316.187 58.071Z" fill="#6C5AE0"/>
<path d="M379.224 105.993C379.124 105.582 379.039 105.34 379.039 105.34L341.637 42.883C341.637 42.883 335.15 40.363 326.773 45.921C326.413 46.536 326.088 47.171 325.8 47.823C324.145 51.677 324.081 56.78 327.313 59.455C329.964 61.648 333.765 61.443 337.204 61.585C340.643 61.727 344.664 62.741 345.879 65.95C346.938 68.746 345.346 71.748 344.217 74.516C343.087 77.284 342.682 81.06 345.176 82.707C346.945 83.871 349.368 83.353 351.293 84.24C354.945 85.922 354.675 91.131 353.823 95.063C352.97 98.995 352.721 104.212 356.388 105.873C359.059 107.086 362.072 105.482 364.857 104.567C367.224 103.825 369.717 103.569 372.186 103.814C374.655 104.059 377.049 104.8 379.224 105.993Z" fill="#F9D37D"/>
<path d="M376.85 107.314C375.799 105.525 370.648 106.292 367.82 107.597C364.982 108.929 362.45 110.831 360.381 113.183C358.668 115.107 359.223 117.988 359.67 118.492C360.715 119.635 363.862 118.684 364.857 118.393C367.472 117.713 369.939 116.555 372.133 114.979C374.577 113.24 377.817 108.96 376.85 107.314Z" fill="#261D5D"/>
<path d="M357.858 119.919C346.585 104.437 335.766 88.64 325.402 72.529C322.508 68.024 319.649 63.494 316.826 58.937C316.158 57.851 314.439 58.852 315.114 59.938C325.198 76.215 335.754 92.187 346.781 107.853C349.865 112.234 352.987 116.59 356.146 120.919C356.885 121.941 358.611 120.948 357.858 119.919Z" fill="black"/>
<path d="M377.014 107.456C376.447 108.157 375.958 108.919 375.557 109.727C375.05 110.508 374.495 111.257 373.894 111.97C372.69 113.397 371.274 114.632 369.695 115.632C368.116 116.622 366.367 117.313 364.537 117.669C362.988 117.967 360.849 118.215 359.705 116.888C358.867 115.916 357.467 117.328 358.284 118.308C359.592 119.826 361.73 120.011 363.606 119.812C365.816 119.572 367.957 118.894 369.901 117.818C371.769 116.773 373.45 115.425 374.875 113.829C375.577 113.046 376.227 112.219 376.822 111.352C377.419 110.493 378.3 109.393 378.477 108.357C378.519 108.172 378.501 107.98 378.428 107.805C378.354 107.631 378.228 107.484 378.067 107.385C377.906 107.286 377.718 107.239 377.529 107.252C377.34 107.265 377.16 107.336 377.014 107.456Z" fill="black"/>
<path d="M369.269 112.346C367.848 111.033 365.767 113.134 367.138 114.475C368.232 115.511 370.321 117.442 368.992 119.003C367.511 120.548 365.716 121.758 363.727 122.552C361.797 123.427 359.72 123.933 357.603 124.042C356.601 124.129 355.593 123.978 354.661 123.602C353.749 123.101 352.958 122.406 352.345 121.565C349.162 117.789 346.128 113.872 343.108 109.947C340.088 106.022 337.424 102.033 334.454 98.2C332.934 96.249 330.902 94.559 328.344 94.418C327.168 94.364 326.006 94.693 325.033 95.354C324.139 96.089 323.207 96.776 322.24 97.413C320.542 98.3 322.034 100.77 323.725 99.954C325.544 99.088 326.781 96.845 329.047 97.548C331.179 98.2 332.443 100.436 333.658 102.132C336.704 106.391 339.835 110.586 343.051 114.716C344.719 116.869 346.412 118.998 348.132 121.104C349.553 122.871 350.974 125.029 353.041 126.072C355.109 127.116 357.709 127.087 360.054 126.683C362.318 126.285 364.502 125.52 366.52 124.418C367.669 123.789 368.759 123.054 369.774 122.225C370.859 121.488 371.702 120.445 372.197 119.23C373.099 116.547 371.095 114.07 369.269 112.346Z" fill="#4839A3"/>
<path d="M297.436 112.381L316.997 97.228C317.927 96.518 318.936 95.752 320.116 95.688C322.176 95.582 323.668 97.555 324.763 99.308C325.587 100.628 326.439 102.196 325.914 103.658C325.451 104.612 324.707 105.402 323.782 105.923C318.837 109.339 313.783 112.594 308.62 115.689C307.126 116.68 305.493 117.444 303.774 117.953C302.917 118.203 302.017 118.269 301.133 118.146C300.249 118.024 299.4 117.716 298.644 117.243C297.202 116.2 295.845 113.616 297.436 112.381Z" fill="black"/>
<path d="M333.65 15.145L329.666 19.125L333.65 23.104L337.634 19.125L333.65 15.145Z" fill="#6C5AE0"/>
<path d="M45.1789 176.256L41.1948 180.236L45.1789 184.216L49.1631 180.236L45.1789 176.256Z" fill="#6C5AE0"/>
<path d="M373.969 55.423L369.985 59.403L373.969 63.383L377.954 59.403L373.969 55.423Z" fill="#6C5AE0"/>
<path d="M368.123 25.614L364.139 29.594L368.123 33.574L372.107 29.594L368.123 25.614Z" fill="#F5CE7A"/>
<path d="M32.0451 101.058L28.061 105.038L32.0452 109.018L36.0293 105.038L32.0451 101.058Z" fill="#F5CE7A"/>
<path d="M24.2283 219.589L20.2441 223.569L24.2283 227.549L28.2124 223.569L24.2283 219.589Z" fill="#F5CE7A"/>
<path d="M167.916 134.121C170.307 129.376 171.271 124.042 170.694 118.762C170.882 118.612 171.087 118.485 171.305 118.386C165.728 112.729 158.899 108.46 151.368 105.922C148.128 104.837 144.54 104.091 141.336 105.277C138.572 106.299 136.461 108.655 135.119 111.274C133.776 113.893 133.115 116.81 132.234 120.046C138.68 128.564 147.974 134.485 158.423 136.732C160.206 137.201 162.068 137.291 163.887 136.995C164.801 136.84 165.66 136.455 166.384 135.876C167.107 135.298 167.671 134.544 168.023 133.688C168.023 133.652 168.023 133.61 167.916 134.121Z" fill="#FABE9A"/>
<path d="M151.368 105.922C148.128 104.837 144.54 104.091 141.336 105.277C138.572 106.299 136.461 108.655 135.119 111.274C133.776 113.893 133.115 116.81 132.234 120.046C133.532 121.773 134.957 123.4 136.497 124.915C143.829 122.014 150.393 117.465 155.681 111.622C156.512 110.7 157.269 109.715 157.947 108.676C155.823 107.603 153.624 106.683 151.368 105.922Z" fill="#D79B78"/>
<path d="M142.807 101.075C142.247 101.979 141.961 103.026 141.984 104.089C142.006 105.152 142.337 106.186 142.935 107.065C144.168 108.822 145.99 110.081 148.072 110.614C150.168 111.176 152.347 111.365 154.509 111.175C155.276 115.589 158.296 119.436 162.118 121.778C166.031 124.031 170.485 125.177 175 125.093C176.869 125.093 178.88 124.908 180.308 123.673C182.065 122.015 183.144 119.764 183.334 117.357C183.582 113.653 183.484 109.934 183.043 106.249C182.826 102.521 181.576 98.926 179.434 95.865C178.375 94.446 177.068 93.218 176.286 91.607C175.107 89.222 175.299 86.426 174.986 83.8C174.219 77.164 169.927 71.024 164.001 68.64C159.291 68.143 154.928 71.166 151.681 74.609C146.686 79.909 143.194 86.442 141.563 93.537C140.91 96.49 140.618 99.769 142.807 101.075Z" fill="#FFD2B8"/>
<path d="M164.015 68.661C159.305 68.164 154.942 71.187 151.695 74.63C146.7 79.93 143.208 86.464 141.577 93.559C141.471 94.013 141.378 94.481 141.3 94.978C143.697 98.168 146.501 101.032 149.642 103.495C151.162 104.822 152.947 105.811 154.878 106.398C156.832 106.888 159.099 106.554 160.506 105.12C162.026 103.573 162.218 101.174 162.026 99.01C161.834 96.845 161.316 94.666 161.799 92.551C162.559 89.087 165.77 86.355 165.806 82.813C165.806 81.394 165.287 79.974 165.095 78.555C164.904 77.135 165.167 75.453 166.353 74.623C167.39 73.913 168.783 74.048 169.977 73.636C170.133 73.579 170.282 73.501 170.439 73.43C168.711 71.349 166.508 69.713 164.015 68.661Z" fill="#FDBD9C"/>
<path d="M184.983 97.725C184.549 97.462 184.087 97.256 183.661 97.015C183.235 96.774 182.787 96.454 182.34 96.185C181.437 95.645 180.549 95.028 179.704 94.403C179.627 94.343 179.537 94.303 179.442 94.287C179.346 94.271 179.248 94.279 179.156 94.311C178.965 94.317 178.779 94.379 178.622 94.489C178.465 94.598 178.344 94.751 178.272 94.929C178.201 95.106 178.182 95.301 178.219 95.488C178.257 95.676 178.348 95.849 178.481 95.986C179.547 96.987 180.464 98.456 179.945 99.968C179.654 100.812 179.114 101.465 179.235 102.416C179.313 102.826 179.506 103.206 179.792 103.511C180.077 103.816 180.443 104.035 180.847 104.141C181.236 104.267 181.647 104.311 182.054 104.272C182.461 104.233 182.856 104.111 183.213 103.914C183.601 103.697 183.959 103.433 184.279 103.126C184.592 102.856 184.926 102.608 185.224 102.317C185.894 101.684 186.291 100.817 186.333 99.897C186.325 99.447 186.195 99.007 185.958 98.625C185.72 98.242 185.383 97.931 184.983 97.725Z" fill="#A2605F"/>
<path d="M183.498 113.524C183.022 112.701 181.757 112.999 181.061 112.892C180.386 112.786 179.73 112.582 179.114 112.289C177.678 111.566 176.412 110.547 175.398 109.301C174.808 108.591 173.643 109.365 173.849 110.131C173.824 110.838 174.014 111.537 174.396 112.133C174.75 112.769 175.206 113.342 175.746 113.829C176.875 114.821 178.244 115.501 179.718 115.802C180.464 115.958 182.503 116.448 183.206 116.129C183.626 115.937 184.038 114.461 183.498 113.524Z" fill="#A2605F"/>
<path d="M173.842 85.617C173.772 85.38 173.613 85.179 173.398 85.058C173.184 84.936 172.93 84.902 172.691 84.964C171.228 85.24 169.799 85.671 168.428 86.248C167.742 86.529 167.075 86.854 166.431 87.221C165.721 87.618 164.932 88.065 164.911 88.96C164.917 89.168 164.989 89.37 165.116 89.536C165.244 89.701 165.421 89.823 165.621 89.882C167.142 90.478 168.861 89.96 170.311 89.407C171.075 89.168 171.795 88.806 172.442 88.335C173.02 87.866 173.458 87.247 173.707 86.546C173.734 86.471 173.75 86.392 173.757 86.312C173.873 86.1 173.903 85.851 173.842 85.617Z" fill="black"/>
<path d="M176.009 94.552C176.023 94.452 176.011 94.349 175.973 94.254C176.026 93.831 175.951 93.402 175.757 93.023C175.563 92.643 175.26 92.331 174.886 92.125C174.633 92.06 174.368 92.054 174.112 92.107C173.856 92.16 173.615 92.27 173.408 92.43C173.003 92.668 172.627 92.952 172.286 93.275C171.617 93.914 171.043 94.645 170.581 95.447C170.467 95.631 170.36 95.823 170.254 96.007C170.079 96.239 169.982 96.519 169.977 96.809C170.048 97.363 170.751 97.519 171.213 97.597C171.781 97.679 172.357 97.679 172.925 97.597C173.541 97.635 174.154 97.497 174.694 97.2C175.187 96.858 175.546 96.356 175.71 95.78C175.885 95.437 175.977 95.058 175.98 94.673C175.988 94.652 176.002 94.602 176.009 94.552Z" fill="#D0E7E6"/>
<path d="M174.979 91.614C174.92 91.558 174.848 91.519 174.769 91.5C174.691 91.481 174.608 91.484 174.531 91.507C174.344 91.424 174.133 91.408 173.936 91.464C173.738 91.52 173.567 91.643 173.451 91.813C172.87 92.759 172.646 93.881 172.819 94.978C172.94 95.88 173.437 97.32 174.595 97.207C174.89 97.139 175.163 96.996 175.387 96.792C175.611 96.588 175.779 96.33 175.874 96.043C176.097 95.545 176.213 95.006 176.215 94.46C176.219 93.926 176.111 93.397 175.898 92.906C175.685 92.416 175.372 91.976 174.979 91.614Z" fill="#261D5D"/>
<path d="M175.426 90.542C175.287 90.323 175.069 90.164 174.818 90.098C174.566 90.033 174.299 90.064 174.069 90.187C171.464 91.415 169.448 93.618 168.456 96.32C168.422 96.446 168.413 96.579 168.43 96.709C168.448 96.839 168.491 96.965 168.557 97.078C168.623 97.192 168.711 97.291 168.815 97.37C168.92 97.45 169.04 97.507 169.167 97.54C169.422 97.604 169.692 97.565 169.919 97.432C170.146 97.3 170.312 97.084 170.382 96.831C170.417 96.753 170.446 96.675 170.474 96.596V96.554C170.538 96.426 170.595 96.298 170.659 96.178C170.794 95.898 170.943 95.626 171.106 95.361C171.263 95.113 171.433 94.865 171.611 94.652C171.64 94.625 171.664 94.594 171.682 94.559L171.845 94.368C171.945 94.247 172.051 94.134 172.158 94.02C172.371 93.793 172.591 93.58 172.826 93.374L173.181 93.076L173.352 92.948C173.868 92.582 174.417 92.266 174.993 92.004C175.126 91.946 175.244 91.859 175.34 91.75C175.436 91.641 175.507 91.512 175.548 91.373C175.589 91.234 175.6 91.088 175.579 90.944C175.558 90.801 175.506 90.664 175.426 90.542Z" fill="black"/>
<path d="M39.9805 52.904H63.0225L113.768 150.793L100.033 167.997L39.9805 52.904Z" fill="black"/>
<path d="M74.4263 115.781H25.3154V117.91H74.4263V115.781Z" fill="black"/>
<path d="M82.1141 122.992H20.6616V125.121H82.1141V122.992Z" fill="black"/>
<path d="M94.2141 152.517H24.6191V154.647H94.2141V152.517Z" fill="black"/>
<path d="M93.2835 158.799H21.1235V160.928H93.2835V158.799Z" fill="black"/>
<path d="M25.3299 199.965L25.3105 202.094L51.1438 202.329L51.1632 200.2L25.3299 199.965Z" fill="black"/>
<path d="M21.1418 207.846L21.0923 209.975L51.1177 210.671L51.1672 208.543L21.1418 207.846Z" fill="black"/>
<path d="M117.47 79.3C116.249 83.581 116.076 88.092 116.967 92.454C117.857 96.815 119.784 100.899 122.585 104.361C124.426 106.59 126.607 108.513 128.561 110.635C130.669 112.784 132.272 115.376 133.25 118.222C137.421 118.222 141.258 115.66 143.794 112.353C146.331 109.045 147.78 105.064 148.853 101.366L156.029 100.763C156.493 100.755 156.949 100.646 157.365 100.443C158.523 99.769 158.331 98.08 158.175 96.745C157.954 94.751 158.156 92.732 158.768 90.821C159.38 88.909 160.389 87.148 161.728 85.652C162.234 85.211 162.607 84.639 162.808 83.998C163.021 82.785 161.877 81.827 161.017 80.947C160.2 80.1 159.561 79.099 159.137 78.002C158.714 76.905 158.515 75.734 158.552 74.559C158.605 73.335 158.928 72.138 159.498 71.054C160.068 69.969 160.87 69.023 161.848 68.285C159.952 66.027 157.416 64.396 154.573 63.607C151.745 62.823 148.802 62.538 145.876 62.763C137.328 63.243 129.144 66.377 122.465 71.727C120.035 73.686 117.775 75.985 116.731 78.945C116.945 79.12 117.199 79.242 117.47 79.3Z" fill="#1D1B17"/>
<path d="M168.335 56.971C167.378 54.896 165.688 53.246 163.589 52.337C162.606 51.937 161.548 51.756 160.488 51.807C159.428 51.857 158.391 52.137 157.45 52.628C156.297 53.22 155.307 54.085 154.566 55.147C153.232 55.365 151.874 55.404 150.53 55.261C149.301 55.041 148.086 54.416 146.864 54.665C145.158 55.012 144.022 56.943 142.316 57.099C140.753 57.234 139.268 55.843 137.762 56.262C136.256 56.68 135.63 58.554 134.138 58.824C133.051 59.022 132.007 58.242 130.877 58.377C129.904 58.497 129.179 59.292 128.426 59.931C126.657 61.45 124.39 62.259 122.493 63.607C118.152 66.681 116.162 72.394 116.738 77.675C116.958 79.719 117.576 81.827 119.068 83.253C120.369 84.395 122.015 85.067 123.743 85.162C127.751 85.503 131.652 83.686 134.955 81.394C138.259 79.101 141.222 76.312 144.704 74.296C149.431 71.558 154.892 70.35 160.335 70.84C161.553 71.021 162.785 71.09 164.015 71.046C164.233 71.024 164.449 70.988 164.662 70.939L164.619 71.031C166.282 71.372 167.966 69.967 168.314 68.349C168.314 68.263 168.314 68.171 168.35 68.086C168.925 66.981 169.285 65.777 169.408 64.537C169.765 61.965 169.393 59.344 168.335 56.971ZM168.499 63.359C168.469 64.177 168.359 64.99 168.172 65.786C167.952 65.015 167.652 64.268 167.277 63.558C166.182 61.297 164.626 59.291 162.708 57.667C160.782 56.05 158.366 55.13 155.852 55.055C156.672 54.12 157.737 53.433 158.927 53.071C160.117 52.708 161.385 52.685 162.587 53.004C164.5 53.632 166.108 54.954 167.092 56.709C168.196 58.75 168.685 61.067 168.499 63.38V63.359Z" fill="black"/>
<path d="M258.216 148.465C267.58 131.118 296.797 105.021 301.145 106.895C302.822 107.605 299.234 111.7 300.314 113.282C301.891 115.575 305.799 112.346 308.57 112.062C309.394 111.887 310.252 111.994 311.007 112.367C312.037 113.027 312.172 114.567 311.632 115.667C311.092 116.767 310.055 117.534 308.606 118.669C310.154 118.471 311.341 120.302 311.107 121.842C310.872 123.382 309.735 124.617 308.414 126.228C309.174 126.569 310.275 126.526 310.694 127.243C312.272 129.94 308.989 133.34 306.36 135.966C307.128 140.125 303.461 143.858 299.589 145.576C295.717 147.293 291.347 147.883 287.787 150.175C283.396 153.014 280.938 157.982 279.098 162.908C277.258 167.834 275.758 172.958 272.753 177.103C263.296 170.637 257.633 159.004 258.742 147.606C258.742 147.691 258.742 147.769 258.216 148.465Z" fill="#FFD2B8"/>
<path d="M263.274 140.629C268.924 140.27 274.211 137.724 278.01 133.532C282.203 128.968 284.554 122.985 285.556 116.845C278.039 123.418 269.406 132.368 263.274 140.629Z" fill="#FFBA95"/>
<path d="M309.181 111.998C308.975 111.998 308.769 111.998 308.57 112.048C305.799 112.331 301.891 115.596 300.314 113.268C299.326 111.849 302.268 108.258 301.443 107.136C298.908 108.82 296.734 110.991 295.049 113.524C294.548 114.213 294.201 115.002 294.033 115.838C293.958 116.257 293.997 116.688 294.147 117.087C294.297 117.485 294.552 117.836 294.885 118.102C295.688 118.655 296.782 118.457 297.727 118.194C301.773 117.054 305.529 115.068 308.748 112.367L309.181 111.998Z" fill="#FFBA95"/>
<path d="M311.632 115.653C311.904 115.086 312 114.451 311.909 113.829C311.051 115.073 309.981 116.156 308.747 117.03C306.737 118.499 304.484 119.635 302.644 121.324C302.14 121.785 301.635 122.452 301.877 123.091C302.175 123.907 303.298 123.9 304.158 123.68C306.626 123.012 308.894 121.753 310.765 120.011C310.586 119.592 310.281 119.24 309.893 119.001C309.505 118.762 309.053 118.649 308.598 118.677C310.055 117.52 311.092 116.76 311.632 115.653Z" fill="#FFBA95"/>
<path d="M305.678 128.287C305.171 128.577 304.721 128.957 304.349 129.408C304.168 129.636 304.061 129.914 304.043 130.205C304.025 130.496 304.098 130.785 304.25 131.033C304.854 131.842 306.133 131.388 306.957 130.806C308.366 129.803 309.629 128.608 310.709 127.257C310.289 126.548 309.188 126.548 308.428 126.243L308.946 125.611C307.947 126.607 306.853 127.504 305.678 128.287Z" fill="#FFBA95"/>
<path d="M304.328 135.64C303.716 135.904 303.179 136.316 302.765 136.839C302.568 137.106 302.481 137.438 302.522 137.767C302.563 138.096 302.729 138.396 302.985 138.606C303.209 138.704 303.451 138.755 303.696 138.755C303.94 138.755 304.182 138.704 304.406 138.606C305.089 138.381 305.754 138.106 306.396 137.783C306.471 137.178 306.455 136.566 306.346 135.966C307.987 134.327 309.899 132.417 310.694 130.494C308.877 132.554 306.725 134.294 304.328 135.64Z" fill="#FFBA95"/>
<path d="M280.696 152.553C276.902 155.037 271.73 154.448 267.758 152.269C264.793 150.492 262.15 148.227 259.942 145.569C259.322 146.553 258.756 147.518 258.244 148.465C258.692 147.876 258.756 147.755 258.77 147.648C257.676 159.004 263.331 170.644 272.781 177.103C275.787 172.944 277.286 167.784 279.126 162.908C280.966 158.032 283.425 153.014 287.816 150.175C288.057 150.019 288.313 149.891 288.562 149.749C288.133 149.473 287.647 149.296 287.141 149.231C284.64 148.926 282.764 151.204 280.696 152.553Z" fill="#FFBA95"/>
<path d="M67.421 189.53C66.0497 186.791 62.2627 186.024 59.3709 187.061C56.4791 188.097 54.2836 190.425 52.2018 192.682C50.2692 194.811 48.2868 196.94 47.3276 199.651C46.3684 202.363 46.6882 205.698 48.6137 207.608C55.5996 202.373 61.916 196.302 67.421 189.53Z" fill="#FFD3B5"/>
<path d="M48.5142 207.494L48.6136 207.608C55.5996 202.373 61.9159 196.302 67.421 189.53C67.3247 189.343 67.2155 189.163 67.0941 188.991C62.8401 190.546 58.9752 193.007 55.767 196.201C52.5589 199.396 50.0842 203.249 48.5142 207.494Z" fill="#FFBA95"/>
<path d="M281.094 176.649C281.033 175.459 280.704 174.298 280.132 173.252C279.56 172.207 278.76 171.303 277.79 170.609C271.687 169.565 267.133 165.016 264.504 159.821C261.875 154.625 260.916 148.777 259.971 143.035C259.807 142.492 259.458 142.024 258.984 141.712C258.51 141.401 257.941 141.266 257.377 141.332C256.389 141.544 255.469 141.998 254.699 142.652C252.418 144.291 250.094 145.959 248.339 148.159C246.584 150.36 245.419 153.177 245.817 155.967C245.462 154.675 244.652 154.32 244.041 154.498C243.448 154.745 242.941 155.162 242.584 155.697C240.836 157.85 239.086 160.003 237.334 162.156C235.301 164.2 234.769 167.124 235.969 169.253C229.248 171.125 223.18 174.826 218.441 179.942C209.04 164.905 197.285 151.472 183.626 140.154C181.955 138.611 180.048 137.346 177.977 136.406C175.845 135.569 173.373 135.412 171.383 136.513C172.165 132.715 169.6 130.366 166.921 129.77C164.243 129.174 161.479 129.77 158.75 130.004C153.69 130.346 148.629 129.344 144.082 127.101C139.535 124.857 135.663 121.451 132.859 117.229C128.276 120.735 124.127 124.326 119.978 127.875L121.264 129.649C112.723 132.006 105.54 137.904 99.8558 144.71C94.0864 151.666 89.6955 159.615 84.7858 167.216C74.5731 183.006 62.0635 197.188 47.6685 209.297C49.4106 219.445 54.4942 228.722 62.1132 235.657C65.3958 238.624 69.396 241.214 73.8154 241.264C80.473 241.349 85.7166 235.884 90.0436 230.838C90.0987 238.352 92.1431 245.717 95.9693 252.187C128.028 253.968 160.164 254.359 192.557 252.961C192.86 244.988 193.168 237.017 193.48 229.049C197.154 233.89 200.742 238.567 205.453 241.924C210.163 245.281 216.167 247.176 221.795 245.941C227.592 244.664 232.189 240.377 236.467 236.267C242.861 230.121 249.256 223.953 254.748 216.969C260.241 209.985 264.731 202.114 266.827 193.505C268.328 193.994 269.932 194.078 271.476 193.751C273.02 193.423 274.451 192.694 275.623 191.638C277.89 189.587 279.105 186.635 280.007 183.711C280.83 181.451 281.199 179.051 281.094 176.649Z" fill="#D8D9FD"/>
<path d="M132.859 117.293C128.276 120.799 124.127 124.39 119.978 127.939L121.264 129.713L120.894 129.813C123.3 132.516 126.043 134.899 129.058 136.903C131.352 131.913 134.61 127.425 138.643 123.695C136.387 121.88 134.435 119.719 132.859 117.293Z" fill="#4839A3"/>
<path d="M132.859 117.293C128.276 120.799 124.127 124.39 119.978 127.939L121.264 129.713L120.894 129.813C123.3 132.516 126.043 134.899 129.058 136.903C131.352 131.913 134.61 127.425 138.643 123.695C136.387 121.88 134.435 119.719 132.859 117.293Z" fill="#4839A3"/>
<path d="M205.723 204.662C209.013 195.974 213.282 187.687 218.448 179.963C209.047 164.926 197.293 151.493 183.633 140.175C181.962 138.633 180.055 137.367 177.984 136.427C176.164 135.646 174.122 135.55 172.236 136.158C170.223 138.643 167.704 140.672 164.847 142.112C183.199 144.511 207.719 172.34 207.087 177.089C206.433 182.021 201.317 192.135 199.598 196.805C197.879 201.475 197.346 207.104 200.309 211.1C202.783 209.619 204.689 207.352 205.723 204.662Z" fill="#4839A3"/>
<path d="M245.732 159.175C248.318 164.973 253.462 169.232 258.862 172.582C264.262 175.932 270.095 178.608 275.168 182.426C275.596 182.694 275.944 183.072 276.177 183.519C276.282 183.746 276.301 184.003 276.229 184.243C276.157 184.482 275.999 184.687 275.786 184.818C275.506 184.903 275.207 184.903 274.927 184.818C268.295 183.778 261.961 181.339 256.347 177.664C250.727 173.96 246.376 168.628 243.877 162.383C243.59 161.737 243.444 161.038 243.451 160.332C243.456 159.979 243.558 159.635 243.746 159.337C243.934 159.039 244.201 158.799 244.517 158.642C244.675 158.572 244.847 158.538 245.02 158.543C245.193 158.548 245.363 158.593 245.517 158.672C245.67 158.752 245.804 158.866 245.908 159.004C246.011 159.143 246.082 159.303 246.115 159.473C246.115 159.558 246.115 159.65 245.732 159.175Z" fill="#F9D37D"/>
<path d="M257.526 170.907C257.703 170.368 257.753 169.796 257.673 169.235C257.593 168.674 257.385 168.138 257.065 167.67C256.415 166.745 255.662 165.898 254.819 165.144C250.775 161.041 248.053 155.823 247.004 150.161C245.986 151.921 245.56 153.961 245.789 155.981C245.433 154.689 244.623 154.334 244.012 154.512C243.927 154.544 243.844 154.582 243.764 154.625C244.802 158.144 246.562 161.408 248.932 164.211C251.301 167.014 254.228 169.294 257.526 170.907Z" fill="#4839A3"/>
<path d="M277.79 170.63C276.842 170.467 275.912 170.212 275.012 169.871C274.577 171.607 273.877 173.266 272.938 174.789C274.984 175.03 276.639 177.401 278.622 176.826C279.136 176.615 279.587 176.275 279.931 175.839C280.274 175.402 280.499 174.884 280.583 174.335C280.085 172.827 279.103 171.525 277.79 170.63Z" fill="#4839A3"/>
<path d="M254.748 216.934C260.113 210.092 264.554 202.384 266.714 193.966C259.192 189.592 252.171 184.411 245.775 178.515C248.816 196.507 245.014 214.748 240.318 232.513C245.477 227.654 250.298 222.448 254.748 216.934Z" fill="#4839A3"/>
<path d="M192.557 252.925L193.431 230.32C182.671 215.11 170.506 200.943 157.095 188.005C155.674 186.621 153.869 185.166 151.922 185.549C150.231 185.897 149.158 187.522 148.306 189.02C138.739 205.909 133.175 224.765 132.042 244.138C131.857 247.275 131.879 250.633 132.859 253.55C152.692 253.966 172.591 253.758 192.557 252.925Z" fill="#4839A3"/>
<path d="M86.1147 209.247C81.7237 214.159 76.878 219.34 70.4833 220.774C64.8631 222.023 58.8735 220.064 54.2196 216.685C51.8885 214.947 49.7854 212.922 47.96 210.66C49.9271 220.275 54.9035 229.017 62.1703 235.621C65.4529 238.588 69.4531 241.179 73.8725 241.228C77.425 241.271 80.53 239.752 83.3365 237.566C84.4396 235.147 85.3889 232.66 86.1786 230.121L97.1418 196.976C93.4424 201.064 89.7667 205.154 86.1147 209.247Z" fill="#4839A3"/>
<path d="M238.406 233.428C230.273 235.251 221.861 235.455 213.648 234.029C205.436 232.603 197.586 229.575 190.546 225.117C190.148 225.408 190.035 226.026 191.164 226.586L193.402 230.227L193.452 229.042C197.125 233.883 200.714 238.56 205.424 241.917C210.135 245.274 216.139 247.169 221.766 245.934C227.564 244.656 232.161 240.37 236.438 236.26L239.465 233.35C239.111 233.302 238.75 233.328 238.406 233.428Z" fill="#F9D37D"/>
<path d="M171.433 136.236C172.016 132.63 169.522 130.38 166.921 129.805C166.591 129.727 166.257 129.67 165.919 129.635C165.817 130.077 165.738 130.525 165.685 130.976C165.24 134.289 164.794 137.579 164.349 140.849C165.809 140.687 167.21 140.185 168.44 139.384C169.67 138.582 170.695 137.504 171.433 136.236Z" fill="#F9D37D"/>
<path d="M144.746 144.838C145.545 145.129 146.421 145.129 147.219 144.838C147.412 144.739 147.599 144.63 147.78 144.511C147.879 144.461 147.974 144.405 148.065 144.341C147.459 143.792 146.665 143.498 145.848 143.518C140.675 142.9 135.693 141.188 131.234 138.495C126.776 135.803 122.943 132.192 119.992 127.903L121.278 129.678C112.723 132.006 105.54 137.904 99.8561 144.71C94.0867 151.666 89.6957 159.615 84.786 167.216C77.8995 177.847 69.9611 187.76 61.0903 196.805C63.6288 197.202 66.2278 196.81 68.5365 195.684C72.1744 194.016 75.123 191.149 77.7235 188.104C87.4505 176.748 93.4401 162.07 105.107 152.673C110.599 148.354 117.034 145.391 123.888 144.025C130.743 142.658 137.824 142.927 144.555 144.809C144.62 144.804 144.686 144.814 144.746 144.838Z" fill="#F9D37D"/>
<path d="M280.341 260.477H218.526V323.644H280.341V260.477Z" fill="black"/>
<path d="M248.368 251.25H1.1084V335H248.368V251.25Z" fill="#6C5AE0"/>
<path d="M1.1084 335V251.25H168.79L194.369 293.125L168.79 335H1.1084Z" fill="#F2BF4E"/>
<path d="M281.407 324.709H217.46V259.412H281.407V324.709ZM219.592 322.579H279.275V261.541H219.592V322.579Z" fill="black"/>
<path d="M4.96849 141.477L0.984375 145.456L4.96849 149.436L8.95261 145.456L4.96849 141.477Z" fill="#6C5AE0"/>
<path d="M145.194 101.813C145.137 101.813 145.083 101.835 145.043 101.875C145.003 101.915 144.98 101.969 144.98 102.026C144.98 102.082 145.003 102.137 145.043 102.176C145.083 102.216 145.137 102.239 145.194 102.239C145.25 102.239 145.304 102.216 145.344 102.176C145.384 102.137 145.407 102.082 145.407 102.026C145.407 101.969 145.384 101.915 145.344 101.875C145.304 101.835 145.25 101.813 145.194 101.813Z" fill="#4839A3"/>
<path d="M25.4083 290.563C25.2198 290.563 25.0391 290.488 24.9059 290.355C24.7726 290.222 24.6978 290.041 24.6978 289.853C24.6978 289.665 24.7726 289.484 24.9059 289.351C25.0391 289.218 25.2198 289.143 25.4083 289.143H25.7706C25.9591 289.143 26.1398 289.218 26.273 289.351C26.4063 289.484 26.4811 289.665 26.4811 289.853C26.4811 290.041 26.4063 290.222 26.273 290.355C26.1398 290.488 25.9591 290.563 25.7706 290.563H25.4083ZM31.4477 290.52C31.2592 290.52 31.0785 290.445 30.9452 290.312C30.812 290.179 30.7371 289.999 30.7371 289.811C30.7371 289.622 30.812 289.442 30.9452 289.309C31.0785 289.176 31.2592 289.101 31.4477 289.101H31.8029C31.9914 289.101 32.1721 289.176 32.3053 289.309C32.4386 289.442 32.5134 289.622 32.5134 289.811C32.5134 289.999 32.4386 290.179 32.3053 290.312C32.1721 290.445 31.9914 290.52 31.8029 290.52H31.4405H31.4477ZM37.487 290.478C37.2986 290.478 37.1179 290.403 36.9846 290.27C36.8514 290.137 36.7765 289.956 36.7765 289.768C36.7765 289.58 36.8514 289.399 36.9846 289.266C37.1179 289.133 37.2986 289.058 37.487 289.058H37.8423C38.0307 289.058 38.2115 289.133 38.3447 289.266C38.478 289.399 38.5528 289.58 38.5528 289.768C38.5528 289.956 38.478 290.137 38.3447 290.27C38.2115 290.403 38.0307 290.478 37.8423 290.478H37.4799H37.487ZM43.5264 290.435C43.338 290.435 43.1573 290.36 43.024 290.227C42.8908 290.094 42.8159 289.914 42.8159 289.725C42.8159 289.537 42.8908 289.357 43.024 289.223C43.1573 289.09 43.338 289.016 43.5264 289.016H43.8888C44.0772 289.016 44.2579 289.09 44.3912 289.223C44.5244 289.357 44.5993 289.537 44.5993 289.725C44.5993 289.914 44.5244 290.094 44.3912 290.227C44.2579 290.36 44.0772 290.435 43.8888 290.435H43.5264ZM49.5658 290.4C49.3774 290.4 49.1966 290.325 49.0634 290.192C48.9301 290.059 48.8553 289.878 48.8553 289.69C48.8553 289.502 48.9301 289.321 49.0634 289.188C49.1966 289.055 49.3774 288.98 49.5658 288.98H49.9282C50.1166 288.98 50.2973 289.055 50.4306 289.188C50.5638 289.321 50.6387 289.502 50.6387 289.69C50.6387 289.878 50.5638 290.059 50.4306 290.192C50.2973 290.325 50.1166 290.4 49.9282 290.4H49.5658ZM55.6052 290.357C55.4167 290.357 55.236 290.282 55.1028 290.149C54.9695 290.016 54.8947 289.836 54.8947 289.647C54.8947 289.459 54.9695 289.279 55.1028 289.145C55.236 289.012 55.4167 288.938 55.6052 288.938H55.9675C56.156 288.938 56.3367 289.012 56.47 289.145C56.6032 289.279 56.6781 289.459 56.6781 289.647C56.6781 289.836 56.6032 290.016 56.47 290.149C56.3367 290.282 56.156 290.357 55.9675 290.357H55.6052ZM61.6446 290.314C61.4561 290.314 61.2754 290.24 61.1422 290.107C61.0089 289.973 60.9341 289.793 60.9341 289.605C60.9341 289.416 61.0089 289.236 61.1422 289.103C61.2754 288.97 61.4561 288.895 61.6446 288.895H62.0069C62.1954 288.895 62.3761 288.97 62.5093 289.103C62.6426 289.236 62.7174 289.416 62.7174 289.605C62.7174 289.793 62.6426 289.973 62.5093 290.107C62.3761 290.24 62.1954 290.314 62.0069 290.314H61.6446ZM67.6839 290.272C67.4955 290.272 67.3148 290.197 67.1815 290.064C67.0483 289.931 66.9734 289.75 66.9734 289.562C66.9734 289.374 67.0483 289.193 67.1815 289.06C67.3148 288.927 67.4955 288.852 67.6839 288.852H68.0463C68.2347 288.852 68.4155 288.927 68.5487 289.06C68.682 289.193 68.7568 289.374 68.7568 289.562C68.7568 289.75 68.682 289.931 68.5487 290.064C68.4155 290.197 68.2347 290.272 68.0463 290.272H67.6839ZM73.7233 290.229C73.5349 290.229 73.3542 290.155 73.2209 290.021C73.0877 289.888 73.0128 289.708 73.0128 289.52C73.0128 289.331 73.0877 289.151 73.2209 289.018C73.3542 288.885 73.5349 288.81 73.7233 288.81H74.0857C74.2741 288.81 74.4549 288.885 74.5881 289.018C74.7213 289.151 74.7962 289.331 74.7962 289.52C74.7962 289.708 74.7213 289.888 74.5881 290.021C74.4549 290.155 74.2741 290.229 74.0857 290.229H73.7233ZM79.7627 290.229C79.5743 290.229 79.3936 290.155 79.2603 290.021C79.1271 289.888 79.0522 289.708 79.0522 289.52C79.0522 289.331 79.1271 289.151 79.2603 289.018C79.3936 288.885 79.5743 288.81 79.7627 288.81H80.118C80.3064 288.81 80.4871 288.885 80.6204 289.018C80.7536 289.151 80.8285 289.331 80.8285 289.52C80.8285 289.708 80.7536 289.888 80.6204 290.021C80.4871 290.155 80.3064 290.229 80.118 290.229H79.7556H79.7627ZM85.8021 290.187C85.6137 290.187 85.4329 290.112 85.2997 289.979C85.1664 289.846 85.0916 289.665 85.0916 289.477C85.0916 289.289 85.1664 289.108 85.2997 288.975C85.4329 288.842 85.6137 288.767 85.8021 288.767H86.1574C86.3458 288.767 86.5265 288.842 86.6598 288.975C86.793 289.108 86.8679 289.289 86.8679 289.477C86.8679 289.665 86.793 289.846 86.6598 289.979C86.5265 290.112 86.3458 290.187 86.1574 290.187H85.795H85.8021ZM91.8415 290.144C91.653 290.144 91.4723 290.069 91.3391 289.936C91.2058 289.803 91.131 289.623 91.131 289.434C91.131 289.246 91.2058 289.066 91.3391 288.933C91.4723 288.799 91.653 288.725 91.8415 288.725H92.2038C92.3923 288.725 92.573 288.799 92.7063 288.933C92.8395 289.066 92.9144 289.246 92.9144 289.434C92.9144 289.623 92.8395 289.803 92.7063 289.936C92.573 290.069 92.3923 290.144 92.2038 290.144H91.8415ZM97.8809 290.102C97.6924 290.102 97.5117 290.027 97.3784 289.894C97.2452 289.761 97.1703 289.58 97.1703 289.392C97.1703 289.204 97.2452 289.023 97.3784 288.89C97.5117 288.757 97.6924 288.682 97.8809 288.682H98.2432C98.4317 288.682 98.6124 288.757 98.7456 288.89C98.8789 289.023 98.9537 289.204 98.9537 289.392C98.9537 289.58 98.8789 289.761 98.7456 289.894C98.6124 290.027 98.4317 290.102 98.2432 290.102H97.8809ZM103.92 290.059C103.732 290.059 103.551 289.984 103.418 289.851C103.285 289.718 103.21 289.537 103.21 289.349C103.21 289.161 103.285 288.98 103.418 288.847C103.551 288.714 103.732 288.639 103.92 288.639H104.283C104.471 288.639 104.652 288.714 104.785 288.847C104.918 288.98 104.993 289.161 104.993 289.349C104.993 289.537 104.918 289.718 104.785 289.851C104.652 289.984 104.471 290.059 104.283 290.059H103.92ZM109.96 290.016C109.771 290.016 109.59 289.942 109.457 289.808C109.324 289.675 109.249 289.495 109.249 289.307C109.249 289.118 109.324 288.938 109.457 288.805C109.59 288.672 109.771 288.597 109.96 288.597H110.322C110.51 288.597 110.691 288.672 110.824 288.805C110.958 288.938 111.033 289.118 111.033 289.307C111.033 289.495 110.958 289.675 110.824 289.808C110.691 289.942 110.51 290.016 110.322 290.016H109.96ZM115.999 289.981C115.811 289.981 115.63 289.906 115.497 289.773C115.363 289.64 115.288 289.459 115.288 289.271C115.288 289.083 115.363 288.902 115.497 288.769C115.63 288.636 115.811 288.561 115.999 288.561H116.361C116.55 288.561 116.731 288.636 116.864 288.769C116.997 288.902 117.072 289.083 117.072 289.271C117.072 289.459 116.997 289.64 116.864 289.773C116.731 289.906 116.55 289.981 116.361 289.981H115.999ZM122.038 289.938C121.85 289.938 121.669 289.864 121.536 289.73C121.403 289.597 121.328 289.417 121.328 289.229C121.328 289.04 121.403 288.86 121.536 288.727C121.669 288.594 121.85 288.519 122.038 288.519H122.401C122.589 288.519 122.77 288.594 122.903 288.727C123.036 288.86 123.111 289.04 123.111 289.229C123.111 289.417 123.036 289.597 122.903 289.73C122.77 289.864 122.589 289.938 122.401 289.938H122.038ZM128.078 289.896C127.889 289.896 127.709 289.821 127.575 289.688C127.442 289.555 127.367 289.374 127.367 289.186C127.367 288.998 127.442 288.817 127.575 288.684C127.709 288.551 127.889 288.476 128.078 288.476H128.44C128.629 288.476 128.809 288.551 128.943 288.684C129.076 288.817 129.151 288.998 129.151 289.186C129.151 289.374 129.076 289.555 128.943 289.688C128.809 289.821 128.629 289.896 128.44 289.896H128.078ZM134.117 289.853C133.929 289.853 133.748 289.778 133.615 289.645C133.481 289.512 133.407 289.332 133.407 289.143C133.407 288.955 133.481 288.775 133.615 288.642C133.748 288.508 133.929 288.434 134.117 288.434H134.48C134.668 288.434 134.849 288.508 134.982 288.642C135.115 288.775 135.19 288.955 135.19 289.143C135.19 289.332 135.115 289.512 134.982 289.645C134.849 289.778 134.668 289.853 134.48 289.853H134.117ZM140.157 289.811C139.968 289.811 139.787 289.736 139.654 289.603C139.521 289.47 139.446 289.289 139.446 289.101C139.446 288.913 139.521 288.732 139.654 288.599C139.787 288.466 139.968 288.391 140.157 288.391H140.519C140.707 288.391 140.888 288.466 141.021 288.599C141.155 288.732 141.229 288.913 141.229 289.101C141.229 289.289 141.155 289.47 141.021 289.603C140.888 289.736 140.707 289.811 140.519 289.811H140.157ZM146.196 289.775C146.007 289.775 145.827 289.7 145.694 289.567C145.56 289.434 145.485 289.254 145.485 289.065C145.485 288.877 145.56 288.697 145.694 288.563C145.827 288.43 146.007 288.356 146.196 288.356H146.558C146.747 288.356 146.927 288.43 147.061 288.563C147.194 288.697 147.269 288.877 147.269 289.065C147.269 289.254 147.194 289.434 147.061 289.567C146.927 289.7 146.747 289.775 146.558 289.775H146.196ZM152.235 289.732C152.047 289.732 151.866 289.658 151.733 289.525C151.6 289.391 151.525 289.211 151.525 289.023C151.525 288.834 151.6 288.654 151.733 288.521C151.866 288.388 152.047 288.313 152.235 288.313H152.591C152.779 288.313 152.96 288.388 153.093 288.521C153.226 288.654 153.301 288.834 153.301 289.023C153.301 289.211 153.226 289.391 153.093 289.525C152.96 289.658 152.779 289.732 152.591 289.732H152.235ZM158.275 289.69C158.086 289.69 157.906 289.615 157.772 289.482C157.639 289.349 157.564 289.168 157.564 288.98C157.564 288.792 157.639 288.611 157.772 288.478C157.906 288.345 158.086 288.27 158.275 288.27H158.637C158.826 288.27 159.006 288.345 159.139 288.478C159.273 288.611 159.348 288.792 159.348 288.98C159.348 289.168 159.273 289.349 159.139 289.482C159.006 289.615 158.826 289.69 158.637 289.69H158.275Z" fill="black"/>
<path d="M25.4083 303.338C25.2198 303.338 25.0391 303.263 24.9059 303.13C24.7726 302.997 24.6978 302.817 24.6978 302.629C24.6978 302.44 24.7726 302.26 24.9059 302.127C25.0391 301.994 25.2198 301.919 25.4083 301.919H25.7706C25.9591 301.919 26.1398 301.994 26.273 302.127C26.4063 302.26 26.4811 302.44 26.4811 302.629C26.4811 302.817 26.4063 302.997 26.273 303.13C26.1398 303.263 25.9591 303.338 25.7706 303.338H25.4083ZM31.4477 303.296C31.2592 303.296 31.0785 303.221 30.9452 303.088C30.812 302.955 30.7371 302.774 30.7371 302.586C30.7371 302.398 30.812 302.217 30.9452 302.084C31.0785 301.951 31.2592 301.876 31.4477 301.876H31.8029C31.9914 301.876 32.1721 301.951 32.3053 302.084C32.4386 302.217 32.5134 302.398 32.5134 302.586C32.5134 302.774 32.4386 302.955 32.3053 303.088C32.1721 303.221 31.9914 303.296 31.8029 303.296H31.4405H31.4477ZM37.487 303.253C37.2986 303.253 37.1179 303.178 36.9846 303.045C36.8514 302.912 36.7765 302.732 36.7765 302.543C36.7765 302.355 36.8514 302.175 36.9846 302.041C37.1179 301.908 37.2986 301.834 37.487 301.834H37.8423C38.0307 301.834 38.2115 301.908 38.3447 302.041C38.478 302.175 38.5528 302.355 38.5528 302.543C38.5528 302.732 38.478 302.912 38.3447 303.045C38.2115 303.178 38.0307 303.253 37.8423 303.253H37.4799H37.487ZM43.5264 303.211C43.338 303.211 43.1573 303.136 43.024 303.003C42.8908 302.87 42.8159 302.689 42.8159 302.501C42.8159 302.313 42.8908 302.132 43.024 301.999C43.1573 301.866 43.338 301.791 43.5264 301.791H43.8888C44.0772 301.791 44.2579 301.866 44.3912 301.999C44.5244 302.132 44.5993 302.313 44.5993 302.501C44.5993 302.689 44.5244 302.87 44.3912 303.003C44.2579 303.136 44.0772 303.211 43.8888 303.211H43.5264ZM49.5658 303.175C49.3774 303.175 49.1966 303.1 49.0634 302.967C48.9301 302.834 48.8553 302.653 48.8553 302.465C48.8553 302.277 48.9301 302.097 49.0634 301.963C49.1966 301.83 49.3774 301.756 49.5658 301.756H49.9282C50.1166 301.756 50.2973 301.83 50.4306 301.963C50.5638 302.097 50.6387 302.277 50.6387 302.465C50.6387 302.653 50.5638 302.834 50.4306 302.967C50.2973 303.1 50.1166 303.175 49.9282 303.175H49.5658ZM55.6052 303.132C55.4167 303.132 55.236 303.058 55.1028 302.925C54.9695 302.791 54.8947 302.611 54.8947 302.423C54.8947 302.234 54.9695 302.054 55.1028 301.921C55.236 301.788 55.4167 301.713 55.6052 301.713H55.9675C56.156 301.713 56.3367 301.788 56.47 301.921C56.6032 302.054 56.6781 302.234 56.6781 302.423C56.6781 302.611 56.6032 302.791 56.47 302.925C56.3367 303.058 56.156 303.132 55.9675 303.132H55.6052ZM61.6446 303.09C61.4561 303.09 61.2754 303.015 61.1422 302.882C61.0089 302.749 60.9341 302.568 60.9341 302.38C60.9341 302.192 61.0089 302.011 61.1422 301.878C61.2754 301.745 61.4561 301.67 61.6446 301.67H62.0069C62.1954 301.67 62.3761 301.745 62.5093 301.878C62.6426 302.011 62.7174 302.192 62.7174 302.38C62.7174 302.568 62.6426 302.749 62.5093 302.882C62.3761 303.015 62.1954 303.09 62.0069 303.09H61.6446ZM67.6839 303.047C67.4955 303.047 67.3148 302.972 67.1815 302.839C67.0483 302.706 66.9734 302.526 66.9734 302.338C66.9734 302.149 67.0483 301.969 67.1815 301.836C67.3148 301.703 67.4955 301.628 67.6839 301.628H68.0463C68.2347 301.628 68.4155 301.703 68.5487 301.836C68.682 301.969 68.7568 302.149 68.7568 302.338C68.7568 302.526 68.682 302.706 68.5487 302.839C68.4155 302.972 68.2347 303.047 68.0463 303.047H67.6839ZM73.7233 303.005C73.5349 303.005 73.3542 302.93 73.2209 302.797C73.0877 302.664 73.0128 302.483 73.0128 302.295C73.0128 302.107 73.0877 301.926 73.2209 301.793C73.3542 301.66 73.5349 301.585 73.7233 301.585H74.0857C74.2741 301.585 74.4549 301.66 74.5881 301.793C74.7213 301.926 74.7962 302.107 74.7962 302.295C74.7962 302.483 74.7213 302.664 74.5881 302.797C74.4549 302.93 74.2741 303.005 74.0857 303.005H73.7233ZM79.7627 303.005C79.5743 303.005 79.3936 302.93 79.2603 302.797C79.1271 302.664 79.0522 302.483 79.0522 302.295C79.0522 302.107 79.1271 301.926 79.2603 301.793C79.3936 301.66 79.5743 301.585 79.7627 301.585H80.1251C80.3135 301.585 80.4942 301.66 80.6275 301.793C80.7607 301.926 80.8356 302.107 80.8356 302.295C80.8356 302.483 80.7607 302.664 80.6275 302.797C80.4942 302.93 80.3135 303.005 80.1251 303.005H79.7627ZM85.8021 302.962C85.6137 302.962 85.4329 302.887 85.2997 302.754C85.1664 302.621 85.0916 302.441 85.0916 302.252C85.0916 302.064 85.1664 301.884 85.2997 301.75C85.4329 301.617 85.6137 301.543 85.8021 301.543H86.1645C86.3529 301.543 86.5336 301.617 86.6669 301.75C86.8001 301.884 86.875 302.064 86.875 302.252C86.875 302.441 86.8001 302.621 86.6669 302.754C86.5336 302.887 86.3529 302.962 86.1645 302.962H85.8021ZM91.8415 302.92C91.653 302.92 91.4723 302.845 91.3391 302.712C91.2058 302.579 91.131 302.398 91.131 302.21C91.131 302.022 91.2058 301.841 91.3391 301.708C91.4723 301.575 91.653 301.5 91.8415 301.5H92.2038C92.3923 301.5 92.573 301.575 92.7063 301.708C92.8395 301.841 92.9144 302.022 92.9144 302.21C92.9144 302.398 92.8395 302.579 92.7063 302.712C92.573 302.845 92.3923 302.92 92.2038 302.92H91.8415ZM97.8809 302.877C97.6924 302.877 97.5117 302.802 97.3784 302.669C97.2452 302.536 97.1703 302.355 97.1703 302.167C97.1703 301.979 97.2452 301.798 97.3784 301.665C97.5117 301.532 97.6924 301.457 97.8809 301.457H98.2361C98.4246 301.457 98.6053 301.532 98.7385 301.665C98.8718 301.798 98.9466 301.979 98.9466 302.167C98.9466 302.355 98.8718 302.536 98.7385 302.669C98.6053 302.802 98.4246 302.877 98.2361 302.877H97.8738H97.8809ZM103.92 302.834C103.732 302.834 103.551 302.76 103.418 302.626C103.285 302.493 103.21 302.313 103.21 302.125C103.21 301.936 103.285 301.756 103.418 301.623C103.551 301.49 103.732 301.415 103.92 301.415H104.283C104.471 301.415 104.652 301.49 104.785 301.623C104.918 301.756 104.993 301.936 104.993 302.125C104.993 302.313 104.918 302.493 104.785 302.626C104.652 302.76 104.471 302.834 104.283 302.834H103.92ZM109.96 302.792C109.771 302.792 109.59 302.717 109.457 302.584C109.324 302.451 109.249 302.27 109.249 302.082C109.249 301.894 109.324 301.713 109.457 301.58C109.59 301.447 109.771 301.372 109.96 301.372H110.322C110.51 301.372 110.691 301.447 110.824 301.58C110.958 301.713 111.033 301.894 111.033 302.082C111.033 302.27 110.958 302.451 110.824 302.584C110.691 302.717 110.51 302.792 110.322 302.792H109.96ZM115.999 302.756C115.811 302.756 115.63 302.681 115.497 302.548C115.363 302.415 115.288 302.235 115.288 302.047C115.288 301.858 115.363 301.678 115.497 301.545C115.63 301.412 115.811 301.337 115.999 301.337H116.361C116.55 301.337 116.731 301.412 116.864 301.545C116.997 301.678 117.072 301.858 117.072 302.047C117.072 302.235 116.997 302.415 116.864 302.548C116.731 302.681 116.55 302.756 116.361 302.756H115.999ZM122.038 302.714C121.85 302.714 121.669 302.639 121.536 302.506C121.403 302.373 121.328 302.192 121.328 302.004C121.328 301.816 121.403 301.635 121.536 301.502C121.669 301.369 121.85 301.294 122.038 301.294H122.401C122.589 301.294 122.77 301.369 122.903 301.502C123.036 301.635 123.111 301.816 123.111 302.004C123.111 302.192 123.036 302.373 122.903 302.506C122.77 302.639 122.589 302.714 122.401 302.714H122.038ZM128.078 302.671C127.889 302.671 127.709 302.596 127.575 302.463C127.442 302.33 127.367 302.15 127.367 301.961C127.367 301.773 127.442 301.593 127.575 301.459C127.709 301.326 127.889 301.252 128.078 301.252H128.44C128.629 301.252 128.809 301.326 128.943 301.459C129.076 301.593 129.151 301.773 129.151 301.961C129.151 302.15 129.076 302.33 128.943 302.463C128.809 302.596 128.629 302.671 128.44 302.671H128.078ZM134.117 302.629C133.929 302.629 133.748 302.554 133.615 302.421C133.481 302.288 133.407 302.107 133.407 301.919C133.407 301.731 133.481 301.55 133.615 301.417C133.748 301.284 133.929 301.209 134.117 301.209H134.48C134.668 301.209 134.849 301.284 134.982 301.417C135.115 301.55 135.19 301.731 135.19 301.919C135.19 302.107 135.115 302.288 134.982 302.421C134.849 302.554 134.668 302.629 134.48 302.629H134.117ZM140.157 302.586C139.968 302.586 139.787 302.511 139.654 302.378C139.521 302.245 139.446 302.064 139.446 301.876C139.446 301.688 139.521 301.507 139.654 301.374C139.787 301.241 139.968 301.166 140.157 301.166H140.519C140.707 301.166 140.888 301.241 141.021 301.374C141.155 301.507 141.229 301.688 141.229 301.876C141.229 302.064 141.155 302.245 141.021 302.378C140.888 302.511 140.707 302.586 140.519 302.586H140.157ZM146.196 302.55C146.007 302.55 145.827 302.476 145.694 302.343C145.56 302.209 145.485 302.029 145.485 301.841C145.485 301.652 145.56 301.472 145.694 301.339C145.827 301.206 146.007 301.131 146.196 301.131H146.551C146.74 301.131 146.92 301.206 147.054 301.339C147.187 301.472 147.262 301.652 147.262 301.841C147.262 302.029 147.187 302.209 147.054 302.343C146.92 302.476 146.74 302.55 146.551 302.55H146.196ZM152.235 302.508C152.047 302.508 151.866 302.433 151.733 302.3C151.6 302.167 151.525 301.986 151.525 301.798C151.525 301.61 151.6 301.429 151.733 301.296C151.866 301.163 152.047 301.088 152.235 301.088H152.591C152.779 301.088 152.96 301.163 153.093 301.296C153.226 301.429 153.301 301.61 153.301 301.798C153.301 301.986 153.226 302.167 153.093 302.3C152.96 302.433 152.779 302.508 152.591 302.508H152.235ZM158.275 302.465C158.086 302.465 157.906 302.39 157.772 302.257C157.639 302.124 157.564 301.944 157.564 301.756C157.564 301.567 157.639 301.387 157.772 301.254C157.906 301.121 158.086 301.046 158.275 301.046H158.637C158.826 301.046 159.006 301.121 159.139 301.254C159.273 301.387 159.348 301.567 159.348 301.756C159.348 301.944 159.273 302.124 159.139 302.257C159.006 302.39 158.826 302.465 158.637 302.465H158.275Z" fill="black"/>
<path d="M25.4083 314.694C25.2198 314.694 25.0391 314.619 24.9059 314.486C24.7726 314.353 24.6978 314.173 24.6978 313.984C24.6978 313.796 24.7726 313.616 24.9059 313.483C25.0391 313.35 25.2198 313.275 25.4083 313.275H25.7635C25.952 313.275 26.1327 313.35 26.2659 313.483C26.3992 313.616 26.474 313.796 26.474 313.984C26.474 314.173 26.3992 314.353 26.2659 314.486C26.1327 314.619 25.952 314.694 25.7635 314.694H25.4012H25.4083ZM31.4477 314.652C31.2592 314.652 31.0785 314.577 30.9452 314.444C30.812 314.311 30.7371 314.13 30.7371 313.942C30.7371 313.754 30.812 313.573 30.9452 313.44C31.0785 313.307 31.2592 313.232 31.4477 313.232H31.8029C31.9914 313.232 32.1721 313.307 32.3053 313.44C32.4386 313.573 32.5134 313.754 32.5134 313.942C32.5134 314.13 32.4386 314.311 32.3053 314.444C32.1721 314.577 31.9914 314.652 31.8029 314.652H31.4405H31.4477ZM37.487 314.609C37.2986 314.609 37.1179 314.534 36.9846 314.401C36.8514 314.268 36.7765 314.088 36.7765 313.899C36.7765 313.711 36.8514 313.531 36.9846 313.397C37.1179 313.264 37.2986 313.19 37.487 313.19H37.8494C38.0378 313.19 38.2186 313.264 38.3518 313.397C38.4851 313.531 38.5599 313.711 38.5599 313.899C38.5599 314.088 38.4851 314.268 38.3518 314.401C38.2186 314.534 38.0378 314.609 37.8494 314.609H37.487ZM43.5264 314.566C43.338 314.566 43.1573 314.492 43.024 314.359C42.8908 314.225 42.8159 314.045 42.8159 313.857C42.8159 313.668 42.8908 313.488 43.024 313.355C43.1573 313.222 43.338 313.147 43.5264 313.147H43.8888C44.0772 313.147 44.2579 313.222 44.3912 313.355C44.5244 313.488 44.5993 313.668 44.5993 313.857C44.5993 314.045 44.5244 314.225 44.3912 314.359C44.2579 314.492 44.0772 314.566 43.8888 314.566H43.5264ZM49.5658 314.531C49.3774 314.531 49.1966 314.456 49.0634 314.323C48.9301 314.19 48.8553 314.009 48.8553 313.821C48.8553 313.633 48.9301 313.452 49.0634 313.319C49.1966 313.186 49.3774 313.111 49.5658 313.111H49.9282C50.1166 313.111 50.2973 313.186 50.4306 313.319C50.5638 313.452 50.6387 313.633 50.6387 313.821C50.6387 314.009 50.5638 314.19 50.4306 314.323C50.2973 314.456 50.1166 314.531 49.9282 314.531H49.5658ZM55.6052 314.488C55.4167 314.488 55.236 314.414 55.1028 314.281C54.9695 314.147 54.8947 313.967 54.8947 313.779C54.8947 313.59 54.9695 313.41 55.1028 313.277C55.236 313.144 55.4167 313.069 55.6052 313.069H55.9675C56.156 313.069 56.3367 313.144 56.47 313.277C56.6032 313.41 56.6781 313.59 56.6781 313.779C56.6781 313.967 56.6032 314.147 56.47 314.281C56.3367 314.414 56.156 314.488 55.9675 314.488H55.6052ZM61.6446 314.446C61.4561 314.446 61.2754 314.371 61.1422 314.238C61.0089 314.105 60.9341 313.924 60.9341 313.736C60.9341 313.548 61.0089 313.367 61.1422 313.234C61.2754 313.101 61.4561 313.026 61.6446 313.026H62.0069C62.1954 313.026 62.3761 313.101 62.5093 313.234C62.6426 313.367 62.7174 313.548 62.7174 313.736C62.7174 313.924 62.6426 314.105 62.5093 314.238C62.3761 314.371 62.1954 314.446 62.0069 314.446H61.6446ZM67.6839 314.403C67.4955 314.403 67.3148 314.328 67.1815 314.195C67.0483 314.062 66.9734 313.882 66.9734 313.693C66.9734 313.505 67.0483 313.325 67.1815 313.192C67.3148 313.059 67.4955 312.984 67.6839 312.984H68.0463C68.2347 312.984 68.4155 313.059 68.5487 313.192C68.682 313.325 68.7568 313.505 68.7568 313.693C68.7568 313.882 68.682 314.062 68.5487 314.195C68.4155 314.328 68.2347 314.403 68.0463 314.403H67.6839ZM73.7233 314.361C73.5349 314.361 73.3542 314.286 73.2209 314.153C73.0877 314.02 73.0128 313.839 73.0128 313.651C73.0128 313.463 73.0877 313.282 73.2209 313.149C73.3542 313.016 73.5349 312.941 73.7233 312.941H74.0857C74.2741 312.941 74.4549 313.016 74.5881 313.149C74.7213 313.282 74.7962 313.463 74.7962 313.651C74.7962 313.839 74.7213 314.02 74.5881 314.153C74.4549 314.286 74.2741 314.361 74.0857 314.361H73.7233ZM79.7627 314.361C79.5743 314.361 79.3936 314.286 79.2603 314.153C79.1271 314.02 79.0522 313.839 79.0522 313.651C79.0522 313.463 79.1271 313.282 79.2603 313.149C79.3936 313.016 79.5743 312.941 79.7627 312.941H80.1251C80.3135 312.941 80.4942 313.016 80.6275 313.149C80.7607 313.282 80.8356 313.463 80.8356 313.651C80.8356 313.839 80.7607 314.02 80.6275 314.153C80.4942 314.286 80.3135 314.361 80.1251 314.361H79.7627ZM85.8021 314.318C85.6137 314.318 85.4329 314.243 85.2997 314.11C85.1664 313.977 85.0916 313.797 85.0916 313.608C85.0916 313.42 85.1664 313.24 85.2997 313.106C85.4329 312.973 85.6137 312.899 85.8021 312.899H86.1645C86.3529 312.899 86.5336 312.973 86.6669 313.106C86.8001 313.24 86.875 313.42 86.875 313.608C86.875 313.797 86.8001 313.977 86.6669 314.11C86.5336 314.243 86.3529 314.318 86.1645 314.318H85.8021ZM91.8415 314.275C91.653 314.275 91.4723 314.201 91.3391 314.068C91.2058 313.934 91.131 313.754 91.131 313.566C91.131 313.377 91.2058 313.197 91.3391 313.064C91.4723 312.931 91.653 312.856 91.8415 312.856H92.2038C92.3923 312.856 92.573 312.931 92.7063 313.064C92.8395 313.197 92.9144 313.377 92.9144 313.566C92.9144 313.754 92.8395 313.934 92.7063 314.068C92.573 314.201 92.3923 314.275 92.2038 314.275H91.8415ZM97.8809 314.233C97.6924 314.233 97.5117 314.158 97.3784 314.025C97.2452 313.892 97.1703 313.711 97.1703 313.523C97.1703 313.335 97.2452 313.154 97.3784 313.021C97.5117 312.888 97.6924 312.813 97.8809 312.813H98.2432C98.4317 312.813 98.6124 312.888 98.7456 313.021C98.8789 313.154 98.9537 313.335 98.9537 313.523C98.9537 313.711 98.8789 313.892 98.7456 314.025C98.6124 314.158 98.4317 314.233 98.2432 314.233H97.8809ZM103.92 314.19C103.732 314.19 103.551 314.116 103.418 313.982C103.285 313.849 103.21 313.669 103.21 313.481C103.21 313.292 103.285 313.112 103.418 312.979C103.551 312.846 103.732 312.771 103.92 312.771H104.283C104.471 312.771 104.652 312.846 104.785 312.979C104.918 313.112 104.993 313.292 104.993 313.481C104.993 313.669 104.918 313.849 104.785 313.982C104.652 314.116 104.471 314.19 104.283 314.19H103.92ZM109.96 314.148C109.771 314.148 109.59 314.073 109.457 313.94C109.324 313.807 109.249 313.626 109.249 313.438C109.249 313.25 109.324 313.069 109.457 312.936C109.59 312.803 109.771 312.728 109.96 312.728H110.322C110.51 312.728 110.691 312.803 110.824 312.936C110.958 313.069 111.033 313.25 111.033 313.438C111.033 313.626 110.958 313.807 110.824 313.94C110.691 314.073 110.51 314.148 110.322 314.148H109.96ZM115.999 314.112C115.811 314.112 115.63 314.037 115.497 313.904C115.363 313.771 115.288 313.591 115.288 313.402C115.288 313.214 115.363 313.034 115.497 312.901C115.63 312.768 115.811 312.693 115.999 312.693H116.354C116.543 312.693 116.723 312.768 116.857 312.901C116.99 313.034 117.065 313.214 117.065 313.402C117.065 313.591 116.99 313.771 116.857 313.904C116.723 314.037 116.543 314.112 116.354 314.112H115.992H115.999ZM122.038 314.07C121.85 314.07 121.669 313.995 121.536 313.862C121.403 313.729 121.328 313.548 121.328 313.36C121.328 313.172 121.403 312.991 121.536 312.858C121.669 312.725 121.85 312.65 122.038 312.65H122.401C122.589 312.65 122.77 312.725 122.903 312.858C123.036 312.991 123.111 313.172 123.111 313.36C123.111 313.548 123.036 313.729 122.903 313.862C122.77 313.995 122.589 314.07 122.401 314.07H122.038ZM128.078 314.027C127.889 314.027 127.709 313.952 127.575 313.819C127.442 313.686 127.367 313.506 127.367 313.317C127.367 313.129 127.442 312.949 127.575 312.815C127.709 312.682 127.889 312.608 128.078 312.608H128.44C128.629 312.608 128.809 312.682 128.943 312.815C129.076 312.949 129.151 313.129 129.151 313.317C129.151 313.506 129.076 313.686 128.943 313.819C128.809 313.952 128.629 314.027 128.44 314.027H128.078ZM134.117 313.984C133.929 313.984 133.748 313.91 133.615 313.777C133.481 313.643 133.407 313.463 133.407 313.275C133.407 313.086 133.481 312.906 133.615 312.773C133.748 312.64 133.929 312.565 134.117 312.565H134.48C134.668 312.565 134.849 312.64 134.982 312.773C135.115 312.906 135.19 313.086 135.19 313.275C135.19 313.463 135.115 313.643 134.982 313.777C134.849 313.91 134.668 313.984 134.48 313.984H134.117ZM140.157 313.942C139.968 313.942 139.787 313.867 139.654 313.734C139.521 313.601 139.446 313.42 139.446 313.232C139.446 313.044 139.521 312.863 139.654 312.73C139.787 312.597 139.968 312.522 140.157 312.522H140.512C140.7 312.522 140.881 312.597 141.014 312.73C141.147 312.863 141.222 313.044 141.222 313.232C141.222 313.42 141.147 313.601 141.014 313.734C140.881 313.867 140.7 313.942 140.512 313.942H140.149H140.157ZM146.196 313.906C146.007 313.906 145.827 313.832 145.694 313.699C145.56 313.565 145.485 313.385 145.485 313.197C145.485 313.008 145.56 312.828 145.694 312.695C145.827 312.562 146.007 312.487 146.196 312.487H146.551C146.74 312.487 146.92 312.562 147.054 312.695C147.187 312.828 147.262 313.008 147.262 313.197C147.262 313.385 147.187 313.565 147.054 313.699C146.92 313.832 146.74 313.906 146.551 313.906H146.196ZM152.235 313.864C152.047 313.864 151.866 313.789 151.733 313.656C151.6 313.523 151.525 313.342 151.525 313.154C151.525 312.966 151.6 312.785 151.733 312.652C151.866 312.519 152.047 312.444 152.235 312.444H152.598C152.786 312.444 152.967 312.519 153.1 312.652C153.233 312.785 153.308 312.966 153.308 313.154C153.308 313.342 153.233 313.523 153.1 313.656C152.967 313.789 152.786 313.864 152.598 313.864H152.235ZM158.275 313.821C158.086 313.821 157.906 313.746 157.772 313.613C157.639 313.48 157.564 313.3 157.564 313.111C157.564 312.923 157.639 312.743 157.772 312.61C157.906 312.477 158.086 312.402 158.275 312.402H158.637C158.826 312.402 159.006 312.477 159.139 312.61C159.273 312.743 159.348 312.923 159.348 313.111C159.348 313.3 159.273 313.48 159.139 313.613C159.006 313.746 158.826 313.821 158.637 313.821H158.275Z" fill="black"/>
<path d="M151.176 93.906C150.24 92.781 149.072 91.871 147.751 91.238C148.385 85.944 148.582 80.608 148.341 75.283C148.199 72.245 147.913 69.219 147.481 66.205C147.137 63.218 146.555 60.263 145.741 57.369C145.362 56.001 144.785 54.695 144.028 53.493C143.218 52.301 142.067 52.393 140.767 52.571C139.387 52.751 138.037 53.114 136.753 53.65C135.666 54.097 134.159 54.65 133.52 55.708C132.88 56.765 133.307 58.362 133.52 59.569C133.769 61.059 134.074 62.543 134.408 64.019C135.055 66.858 135.829 69.697 136.582 72.536C138.188 78.533 139.758 84.602 140.064 90.805C137.502 92.955 135.639 95.819 134.714 99.031C134.234 100.751 134.139 102.556 134.435 104.317C134.73 106.078 135.41 107.753 136.426 109.223C138.557 112.062 142.323 113.758 145.805 112.991C149.471 112.197 152.235 108.925 153.286 105.333C153.879 103.399 153.997 101.351 153.63 99.362C153.262 97.373 152.421 95.502 151.176 93.906ZM142.039 90.422C141.471 80.23 137.641 70.598 135.715 60.612C135.587 59.973 135.474 59.335 135.367 58.696C135.289 58.22 134.962 57.276 135.168 56.808C135.374 56.34 136.113 56.098 136.504 55.907C137.167 55.569 137.856 55.287 138.565 55.062C139.062 54.906 139.559 54.771 140.071 54.665C140.683 54.478 141.321 54.392 141.961 54.409C142.352 54.48 142.316 54.487 142.543 54.849C142.707 55.112 142.854 55.384 142.984 55.665C143.298 56.332 143.564 57.019 143.78 57.724C144.536 60.336 145.084 63.003 145.421 65.701C145.847 68.54 146.132 71.379 146.302 74.218C146.614 79.662 146.462 85.124 145.847 90.542C144.602 90.222 143.302 90.181 142.039 90.422Z" fill="#4839A3"/>
<path d="M147.752 91.238C148.385 85.944 148.582 80.608 148.341 75.283C148.199 72.245 147.913 69.219 147.482 66.205C147.137 63.218 146.555 60.263 145.741 57.369C145.362 56.001 144.785 54.695 144.029 53.493C143.868 53.235 143.653 53.013 143.4 52.844C143.146 52.675 142.859 52.563 142.558 52.514C142.584 53.228 142.525 53.943 142.38 54.643L142.544 54.892C142.707 55.154 142.854 55.427 142.984 55.708C143.298 56.374 143.564 57.062 143.78 57.766C144.536 60.378 145.085 63.046 145.421 65.744C145.848 68.583 146.132 71.422 146.302 74.261C146.614 79.705 146.462 85.166 145.848 90.585C145.381 90.471 144.906 90.392 144.427 90.351C144.363 90.805 144.306 91.252 144.242 91.699C145.503 92.079 146.673 92.712 147.679 93.562C148.685 94.411 149.506 95.457 150.091 96.636C150.676 97.815 151.013 99.101 151.08 100.415C151.148 101.729 150.944 103.043 150.483 104.275C150.022 105.508 149.312 106.633 148.399 107.58C147.485 108.528 146.386 109.278 145.17 109.784C143.954 110.29 142.648 110.542 141.331 110.524C140.014 110.505 138.714 110.217 137.513 109.677C137.221 109.546 136.913 109.456 136.597 109.407C137.659 110.792 139.084 111.856 140.714 112.483C142.344 113.109 144.116 113.273 145.833 112.956C149.5 112.161 152.264 108.889 153.315 105.298C153.901 103.365 154.014 101.32 153.643 99.335C153.272 97.35 152.428 95.483 151.184 93.892C150.244 92.772 149.073 91.866 147.752 91.238Z" fill="#6C5AE0"/>
<path d="M25.9625 277.766C25.774 277.766 25.5933 277.691 25.4601 277.558C25.3268 277.425 25.252 277.245 25.252 277.056C25.252 276.868 25.3268 276.688 25.4601 276.554C25.5933 276.421 25.774 276.347 25.9625 276.347H26.3177C26.5062 276.347 26.6869 276.421 26.8201 276.554C26.9534 276.688 27.0282 276.868 27.0282 277.056C27.0282 277.245 26.9534 277.425 26.8201 277.558C26.6869 277.691 26.5062 277.766 26.3177 277.766H25.9625ZM32.0019 277.724C31.8134 277.724 31.6327 277.649 31.4994 277.516C31.3662 277.383 31.2913 277.202 31.2913 277.014C31.2913 276.826 31.3662 276.645 31.4994 276.512C31.6327 276.379 31.8134 276.304 32.0019 276.304H32.3571C32.5456 276.304 32.7263 276.379 32.8595 276.512C32.9928 276.645 33.0676 276.826 33.0676 277.014C33.0676 277.202 32.9928 277.383 32.8595 277.516C32.7263 277.649 32.5456 277.724 32.3571 277.724H32.0019ZM38.0412 277.681C37.8528 277.681 37.6721 277.606 37.5388 277.473C37.4056 277.34 37.3307 277.159 37.3307 276.971C37.3307 276.783 37.4056 276.602 37.5388 276.469C37.6721 276.336 37.8528 276.261 38.0412 276.261H38.4036C38.592 276.261 38.7728 276.336 38.906 276.469C39.0393 276.602 39.1141 276.783 39.1141 276.971C39.1141 277.159 39.0393 277.34 38.906 277.473C38.7728 277.606 38.592 277.681 38.4036 277.681H38.0412ZM44.0806 277.645C43.8922 277.645 43.7115 277.571 43.5782 277.438C43.445 277.304 43.3701 277.124 43.3701 276.936C43.3701 276.747 43.445 276.567 43.5782 276.434C43.7115 276.301 43.8922 276.226 44.0806 276.226H44.4359C44.6243 276.226 44.805 276.301 44.9383 276.434C45.0715 276.567 45.1464 276.747 45.1464 276.936C45.1464 277.124 45.0715 277.304 44.9383 277.438C44.805 277.571 44.6243 277.645 44.4359 277.645H44.0806ZM50.1129 277.603C49.9245 277.603 49.7437 277.528 49.6105 277.395C49.4772 277.262 49.4024 277.081 49.4024 276.893C49.4024 276.705 49.4772 276.524 49.6105 276.391C49.7437 276.258 49.9245 276.183 50.1129 276.183H50.4682C50.6566 276.183 50.8373 276.258 50.9706 276.391C51.1038 276.524 51.1787 276.705 51.1787 276.893C51.1787 277.081 51.1038 277.262 50.9706 277.395C50.8373 277.528 50.6566 277.603 50.4682 277.603H50.12H50.1129ZM56.1523 277.56C55.9638 277.56 55.7831 277.486 55.6499 277.352C55.5166 277.219 55.4418 277.039 55.4418 276.851C55.4418 276.662 55.5166 276.482 55.6499 276.349C55.7831 276.216 55.9638 276.141 56.1523 276.141H56.5075C56.696 276.141 56.8767 276.216 57.01 276.349C57.1432 276.482 57.2181 276.662 57.2181 276.851C57.2181 277.039 57.1432 277.219 57.01 277.352C56.8767 277.486 56.696 277.56 56.5075 277.56H56.1452H56.1523ZM62.1917 277.518C62.0032 277.518 61.8225 277.443 61.6893 277.31C61.556 277.177 61.4812 276.996 61.4812 276.808C61.4812 276.62 61.556 276.439 61.6893 276.306C61.8225 276.173 62.0032 276.098 62.1917 276.098H62.5469C62.7354 276.098 62.9161 276.173 63.0493 276.306C63.1826 276.439 63.2574 276.62 63.2574 276.808C63.2574 276.996 63.1826 277.177 63.0493 277.31C62.9161 277.443 62.7354 277.518 62.5469 277.518H62.1988H62.1917ZM68.231 277.475C68.0426 277.475 67.8619 277.4 67.7286 277.267C67.5954 277.134 67.5205 276.954 67.5205 276.765C67.5205 276.577 67.5954 276.397 67.7286 276.264C67.8619 276.13 68.0426 276.056 68.231 276.056H68.5863C68.7747 276.056 68.9555 276.13 69.0887 276.264C69.222 276.397 69.2968 276.577 69.2968 276.765C69.2968 276.954 69.222 277.134 69.0887 277.267C68.9555 277.4 68.7747 277.475 68.5863 277.475H68.2239H68.231ZM74.2775 277.433C74.0891 277.433 73.9084 277.358 73.7751 277.225C73.6419 277.092 73.567 276.911 73.567 276.723C73.567 276.535 73.6419 276.354 73.7751 276.221C73.9084 276.088 74.0891 276.013 74.2775 276.013H74.6328C74.8212 276.013 75.002 276.088 75.1352 276.221C75.2685 276.354 75.3433 276.535 75.3433 276.723C75.3433 276.911 75.2685 277.092 75.1352 277.225C75.002 277.358 74.8212 277.433 74.6328 277.433H74.2775ZM80.3169 277.39C80.1285 277.39 79.9478 277.315 79.8145 277.182C79.6813 277.049 79.6064 276.868 79.6064 276.68C79.6064 276.492 79.6813 276.311 79.8145 276.178C79.9478 276.045 80.1285 275.97 80.3169 275.97H80.6722C80.8606 275.97 81.0413 276.045 81.1746 276.178C81.3078 276.311 81.3827 276.492 81.3827 276.68C81.3827 276.868 81.3078 277.049 81.1746 277.182C81.0413 277.315 80.8606 277.39 80.6722 277.39H80.3098H80.3169ZM86.3563 277.347C86.1679 277.347 85.9871 277.273 85.8539 277.139C85.7206 277.006 85.6458 276.826 85.6458 276.638C85.6458 276.449 85.7206 276.269 85.8539 276.136C85.9871 276.003 86.1679 275.928 86.3563 275.928H86.7116C86.9 275.928 87.0807 276.003 87.214 276.136C87.3472 276.269 87.4221 276.449 87.4221 276.638C87.4221 276.826 87.3472 277.006 87.214 277.139C87.0807 277.273 86.9 277.347 86.7116 277.347H86.3563ZM92.3957 277.305C92.2072 277.305 92.0265 277.23 91.8933 277.097C91.76 276.964 91.6852 276.783 91.6852 276.595C91.6852 276.407 91.76 276.226 91.8933 276.093C92.0265 275.96 92.2072 275.885 92.3957 275.885H92.7509C92.9394 275.885 93.1201 275.96 93.2534 276.093C93.3866 276.226 93.4615 276.407 93.4615 276.595C93.4615 276.783 93.3866 276.964 93.2534 277.097C93.1201 277.23 92.9394 277.305 92.7509 277.305H92.3886H92.3957ZM98.4351 277.262C98.2466 277.262 98.0659 277.187 97.9327 277.054C97.7994 276.921 97.7246 276.741 97.7246 276.552C97.7246 276.364 97.7994 276.184 97.9327 276.051C98.0659 275.917 98.2466 275.843 98.4351 275.843H98.7903C98.9788 275.843 99.1595 275.917 99.2927 276.051C99.426 276.184 99.5008 276.364 99.5008 276.552C99.5008 276.741 99.426 276.921 99.2927 277.054C99.1595 277.187 98.9788 277.262 98.7903 277.262H98.4351ZM104.474 277.22C104.286 277.22 104.105 277.145 103.972 277.012C103.839 276.879 103.764 276.698 103.764 276.51C103.764 276.322 103.839 276.141 103.972 276.008C104.105 275.875 104.286 275.8 104.474 275.8H104.83C105.018 275.8 105.199 275.875 105.332 276.008C105.465 276.141 105.54 276.322 105.54 276.51C105.54 276.698 105.465 276.879 105.332 277.012C105.199 277.145 105.018 277.22 104.83 277.22H104.467H104.474ZM110.514 277.22C110.325 277.22 110.145 277.145 110.011 277.012C109.878 276.879 109.803 276.698 109.803 276.51C109.803 276.322 109.878 276.141 110.011 276.008C110.145 275.875 110.325 275.8 110.514 275.8H110.869C111.058 275.8 111.238 275.875 111.372 276.008C111.505 276.141 111.58 276.322 111.58 276.51C111.58 276.698 111.505 276.879 111.372 277.012C111.238 277.145 111.058 277.22 110.869 277.22H110.514ZM116.553 277.177C116.365 277.177 116.184 277.102 116.051 276.969C115.918 276.836 115.843 276.656 115.843 276.467C115.843 276.279 115.918 276.099 116.051 275.965C116.184 275.832 116.365 275.758 116.553 275.758H116.908C117.097 275.758 117.278 275.832 117.411 275.965C117.544 276.099 117.619 276.279 117.619 276.467C117.619 276.656 117.544 276.836 117.411 276.969C117.278 277.102 117.097 277.177 116.908 277.177H116.546H116.553ZM122.593 277.134C122.404 277.134 122.223 277.06 122.09 276.927C121.957 276.793 121.882 276.613 121.882 276.425C121.882 276.236 121.957 276.056 122.09 275.923C122.223 275.79 122.404 275.715 122.593 275.715H122.948C123.136 275.715 123.317 275.79 123.45 275.923C123.584 276.056 123.658 276.236 123.658 276.425C123.658 276.613 123.584 276.793 123.45 276.927C123.317 277.06 123.136 277.134 122.948 277.134H122.593ZM128.632 277.092C128.444 277.092 128.263 277.017 128.13 276.884C127.996 276.751 127.921 276.57 127.921 276.382C127.921 276.194 127.996 276.013 128.13 275.88C128.263 275.747 128.444 275.672 128.632 275.672H128.987C129.176 275.672 129.356 275.747 129.49 275.88C129.623 276.013 129.698 276.194 129.698 276.382C129.698 276.57 129.623 276.751 129.49 276.884C129.356 277.017 129.176 277.092 128.987 277.092H128.625H128.632ZM134.671 277.049C134.483 277.049 134.302 276.975 134.169 276.841C134.036 276.708 133.961 276.528 133.961 276.34C133.961 276.151 134.036 275.971 134.169 275.838C134.302 275.705 134.483 275.63 134.671 275.63H135.027C135.215 275.63 135.396 275.705 135.529 275.838C135.662 275.971 135.737 276.151 135.737 276.34C135.737 276.528 135.662 276.708 135.529 276.841C135.396 276.975 135.215 277.049 135.027 277.049H134.671ZM140.711 277.014C140.522 277.014 140.342 276.939 140.208 276.806C140.075 276.673 140 276.492 140 276.304C140 276.116 140.075 275.935 140.208 275.802C140.342 275.669 140.522 275.594 140.711 275.594H141.066C141.254 275.594 141.435 275.669 141.568 275.802C141.702 275.935 141.777 276.116 141.777 276.304C141.777 276.492 141.702 276.673 141.568 276.806C141.435 276.939 141.254 277.014 141.066 277.014H140.704H140.711ZM146.75 276.971C146.562 276.971 146.381 276.896 146.248 276.763C146.114 276.63 146.04 276.45 146.04 276.261C146.04 276.073 146.114 275.893 146.248 275.76C146.381 275.626 146.562 275.552 146.75 275.552H147.105C147.294 275.552 147.475 275.626 147.608 275.76C147.741 275.893 147.816 276.073 147.816 276.261C147.816 276.45 147.741 276.63 147.608 276.763C147.475 276.896 147.294 276.971 147.105 276.971H146.75ZM152.79 276.929C152.601 276.929 152.42 276.854 152.287 276.721C152.154 276.588 152.079 276.407 152.079 276.219C152.079 276.031 152.154 275.85 152.287 275.717C152.42 275.584 152.601 275.509 152.79 275.509H153.145C153.333 275.509 153.514 275.584 153.647 275.717C153.78 275.85 153.855 276.031 153.855 276.219C153.855 276.407 153.78 276.588 153.647 276.721C153.514 276.854 153.333 276.929 153.145 276.929H152.782H152.79ZM158.829 276.886C158.64 276.886 158.46 276.811 158.327 276.678C158.193 276.545 158.118 276.365 158.118 276.176C158.118 275.988 158.193 275.808 158.327 275.674C158.46 275.541 158.64 275.467 158.829 275.467H159.184C159.373 275.467 159.553 275.541 159.687 275.674C159.82 275.808 159.895 275.988 159.895 276.176C159.895 276.365 159.82 276.545 159.687 276.678C159.553 276.811 159.373 276.886 159.184 276.886H158.829Z" fill="black"/>
<path d="M342.738 52.102L342.17 50.974L341.054 48.76C340.92 48.535 340.702 48.372 340.448 48.305C340.195 48.239 339.925 48.275 339.697 48.405C339.475 48.542 339.314 48.759 339.248 49.011C339.182 49.264 339.216 49.532 339.342 49.76L340.458 51.975C340.642 52.337 340.82 52.684 341.005 53.068L341.282 53.607C341.324 53.699 341.367 53.792 341.417 53.877C341.53 54.068 341.686 54.231 341.872 54.352C342.016 54.439 342.182 54.485 342.351 54.485C342.52 54.485 342.686 54.439 342.831 54.352C342.974 54.269 343.092 54.15 343.174 54.007C343.257 53.864 343.3 53.701 343.3 53.536C343.223 53.022 343.031 52.532 342.738 52.102Z" fill="#E4A111"/>
<path d="M307.404 115.859C307.269 115.637 307.052 115.477 306.8 115.412C306.548 115.347 306.281 115.383 306.054 115.511C305.571 115.774 305.102 116.086 304.633 116.377L303.212 117.25C302.984 117.383 302.818 117.6 302.751 117.855C302.684 118.11 302.721 118.381 302.854 118.609C302.986 118.837 303.204 119.003 303.46 119.07C303.715 119.137 303.986 119.1 304.214 118.968L305.635 118.087C306.111 117.796 306.602 117.52 307.056 117.207C307.273 117.072 307.435 116.863 307.511 116.618C307.576 116.361 307.538 116.088 307.404 115.859Z" fill="#FFEDE3"/>
<path d="M281.698 144.462C281.532 143.977 281.338 143.503 281.116 143.042C280.931 142.623 280.739 142.212 280.54 141.8C280.149 140.97 279.73 140.161 279.282 139.366C279.149 139.139 278.931 138.975 278.677 138.909C278.423 138.842 278.153 138.879 277.925 139.011C277.702 139.147 277.54 139.364 277.473 139.617C277.407 139.87 277.442 140.139 277.57 140.366C278.011 141.147 278.423 141.949 278.806 142.758C278.998 143.156 279.183 143.553 279.361 143.958C279.446 144.142 279.524 144.32 279.602 144.504C279.602 144.547 279.687 144.71 279.695 144.731C279.759 144.895 279.83 145.058 279.908 145.214C280.029 145.417 280.219 145.57 280.444 145.644C280.669 145.718 280.913 145.708 281.131 145.617C281.349 145.525 281.527 145.358 281.631 145.145C281.735 144.933 281.759 144.69 281.698 144.462Z" fill="#FFEDE3"/>
<path d="M170.374 101.877C169.557 101.167 168.691 100.543 167.845 99.89C167.651 99.71 167.399 99.607 167.134 99.599C166.872 99.599 166.62 99.702 166.434 99.887C166.247 100.072 166.142 100.323 166.14 100.585C166.138 100.717 166.162 100.848 166.212 100.97C166.262 101.092 166.337 101.203 166.431 101.295C167.348 102.005 168.243 102.714 169.188 103.424C169.299 103.491 169.422 103.534 169.551 103.551C169.679 103.568 169.809 103.559 169.934 103.524C170.134 103.462 170.31 103.341 170.438 103.176C170.592 102.99 170.67 102.754 170.658 102.514C170.646 102.274 170.545 102.047 170.374 101.877Z" fill="#FFEDE3"/>
<path d="M300.406 125.128V124.972C300.39 124.921 300.371 124.871 300.349 124.823L300.243 124.553C300.165 124.369 300.094 124.177 300.015 123.993C299.989 123.865 299.927 123.747 299.838 123.652C299.754 123.544 299.64 123.463 299.511 123.418C299.4 123.348 299.272 123.309 299.141 123.304C299.013 123.272 298.879 123.272 298.751 123.304C298.499 123.374 298.284 123.539 298.154 123.766L298.054 124C298.005 124.171 298.005 124.353 298.054 124.525L298.282 125.1L298.395 125.384C298.437 125.506 298.489 125.625 298.552 125.739L298.637 125.866C298.769 126.074 298.97 126.227 299.205 126.299H299.461C299.587 126.306 299.712 126.279 299.824 126.221C299.904 126.201 299.978 126.16 300.037 126.101C300.139 126.033 300.222 125.94 300.278 125.831L300.378 125.604C300.425 125.45 300.435 125.287 300.406 125.128Z" fill="#F8BE9D"/>
<path d="M301.117 131.977C301.069 131.845 301.031 131.71 301.003 131.573C301.003 131.452 301.003 131.324 301.003 131.204C301.005 131.072 300.981 130.942 300.932 130.82C300.883 130.699 300.811 130.588 300.719 130.494C300.528 130.31 300.274 130.206 300.008 130.203C299.743 130.205 299.488 130.309 299.298 130.494C299.117 130.687 299.013 130.939 299.006 131.204C299 131.463 299.019 131.722 299.063 131.977C299.091 132.156 299.136 132.332 299.198 132.502C299.279 132.749 299.384 132.986 299.511 133.212C299.596 133.353 299.693 133.486 299.802 133.61C299.885 133.697 299.978 133.773 300.079 133.837C300.159 133.882 300.242 133.92 300.328 133.95C300.501 133.993 300.681 133.993 300.854 133.95C301.012 133.904 301.157 133.819 301.273 133.702C301.388 133.588 301.471 133.446 301.515 133.29C301.692 132.772 301.33 132.382 301.117 131.977Z" fill="#F8BE9D"/>
<path d="M300.477 139.33C300.523 139.202 300.543 139.065 300.534 138.929C300.525 138.792 300.487 138.66 300.425 138.538C300.362 138.417 300.275 138.31 300.169 138.224C300.063 138.137 299.94 138.074 299.808 138.037C299.676 138.001 299.539 137.992 299.403 138.01C299.268 138.029 299.138 138.076 299.021 138.147C298.905 138.219 298.804 138.313 298.726 138.425C298.647 138.537 298.593 138.664 298.566 138.798C298.421 139.259 298.332 139.735 298.303 140.217C298.289 140.411 298.289 140.606 298.303 140.799C298.303 140.899 298.303 140.991 298.303 141.09C298.308 141.22 298.327 141.348 298.36 141.474C298.397 141.591 298.444 141.705 298.502 141.814L298.651 142.013L298.843 142.162C299.029 142.264 299.244 142.302 299.454 142.269C299.618 142.251 299.773 142.187 299.902 142.084C300.073 141.966 300.194 141.789 300.243 141.587C300.273 141.464 300.292 141.338 300.3 141.211C300.303 141.15 300.303 141.088 300.3 141.026C300.3 140.913 300.3 140.792 300.3 140.679C300.297 140.491 300.309 140.304 300.335 140.118C300.36 139.852 300.408 139.588 300.477 139.33Z" fill="#F8BE9D"/>
<path d="M145.158 96.682C145.09 96.408 144.942 96.161 144.732 95.972C144.645 95.877 144.553 95.787 144.455 95.702C144.206 95.476 143.929 95.283 143.631 95.127C143.035 94.816 142.371 94.657 141.698 94.666C141.434 94.665 141.179 94.767 140.988 94.95C140.848 95.089 140.753 95.267 140.715 95.46C140.677 95.654 140.697 95.854 140.773 96.036C140.85 96.218 140.978 96.373 141.143 96.482C141.308 96.59 141.501 96.647 141.698 96.646H142.032C142.209 96.682 142.382 96.731 142.551 96.795C142.708 96.866 142.857 96.952 142.998 97.051C143.166 97.186 143.318 97.338 143.453 97.505L143.297 97.306C143.408 97.48 143.556 97.628 143.73 97.739C143.899 97.832 144.09 97.874 144.282 97.86C144.474 97.846 144.657 97.777 144.81 97.661C144.946 97.563 145.05 97.427 145.109 97.271C145.181 97.083 145.198 96.879 145.158 96.682Z" fill="white"/>
<path d="M218.299 180.524C218.467 180.284 218.673 180.073 218.91 179.899C219.085 179.78 219.247 179.642 219.393 179.488C219.367 179.343 219.311 179.205 219.229 179.083C214.361 172.102 209.112 165.395 203.506 158.99C200.664 155.749 197.722 152.586 194.681 149.501C191.891 146.556 188.935 143.771 185.828 141.161C182.354 138.322 178.211 135.561 173.657 135.079C173.53 135.056 173.4 135.056 173.273 135.079C173.037 134.598 172.759 134.14 172.442 133.709C172.039 133.11 171.605 132.531 171.142 131.977C170.282 130.947 169.315 130.012 168.257 129.188C168.066 129.004 167.812 128.901 167.546 128.901C167.281 128.901 167.027 129.004 166.836 129.188C166.742 129.281 166.668 129.391 166.617 129.513C166.567 129.635 166.54 129.766 166.54 129.898C166.54 130.03 166.567 130.16 166.617 130.282C166.668 130.404 166.742 130.514 166.836 130.607C167.854 131.401 168.788 132.298 169.621 133.283C169.714 133.39 169.813 133.503 169.905 133.624C169.959 133.685 170.008 133.749 170.055 133.815L170.097 133.872C170.289 134.135 170.481 134.397 170.666 134.667C170.85 134.937 171.021 135.214 171.184 135.49C171.277 135.647 171.362 135.824 171.461 135.994C168.861 138.975 164.605 139.976 160.889 140.792C155.638 141.942 150.189 143.149 144.803 142.212C143.552 141.999 143.012 143.908 144.277 144.121C150.125 145.115 155.965 143.887 161.671 142.623C165.934 141.679 170.381 140.366 173.245 136.896C173.362 136.958 173.49 136.996 173.621 137.009C177.48 137.421 181.196 139.962 184.151 142.325C187.195 144.842 190.087 147.537 192.812 150.395C198.591 156.228 204.046 162.372 209.154 168.799C212.053 172.456 214.836 176.201 217.503 180.034C217.585 180.175 217.7 180.293 217.839 180.379C217.978 180.464 218.136 180.514 218.299 180.524Z" fill="black"/>
<path d="M72.5083 239.532C61.9287 237.907 55.1291 228.581 51.6831 219.162C50.6132 216.163 49.7118 213.106 48.9831 210.007C48.6776 208.772 46.7663 209.297 47.0647 210.539C49.6865 221.221 53.9496 232.491 63.8613 238.446C66.3475 239.962 69.1063 240.977 71.9825 241.434C73.233 241.633 73.7659 239.724 72.5083 239.532Z" fill="black"/>
<path d="M217.247 245.175C205.879 243.94 198.22 234.266 191.74 225.87C190.973 224.876 189.246 225.87 190.028 226.87C197.012 235.92 205.062 245.835 217.247 247.155C218.512 247.297 218.512 245.309 217.247 245.175Z" fill="black"/>
<path d="M306.779 134.951C306.373 138.012 304.841 140.813 302.481 142.808C299.866 145.037 296.42 145.697 293.244 146.839C290.389 147.836 287.798 149.469 285.67 151.616C283.628 153.78 281.92 156.237 280.604 158.905C279.936 160.19 279.339 161.51 278.771 162.844C278.643 162.789 278.505 162.757 278.366 162.752C275.696 162.717 273.067 162.084 270.674 160.9C268.282 159.716 266.185 158.01 264.539 155.91C263.829 154.973 262.528 156.165 262.976 157.109C265.733 162.858 269.293 169.274 276.277 170.211H276.391C276.442 170.454 276.581 170.669 276.781 170.814C281.449 174.363 280.178 181.014 278.345 185.662C277.407 188.054 276.213 190.141 273.811 191.34C271.609 192.281 269.201 192.638 266.82 192.377C266.678 192.368 266.536 192.388 266.401 192.433C262.956 190.403 259.661 188.131 256.539 185.634C254.954 184.427 253.384 183.192 251.828 181.943C251.039 181.312 250.258 180.666 249.476 180.027C248.733 179.301 247.919 178.652 247.046 178.089C246.336 177.706 245.185 178.565 245.789 179.346C246.42 180.084 247.135 180.746 247.92 181.319C248.737 182.028 249.569 182.674 250.4 183.341C252.001 184.633 253.614 185.901 255.239 187.146C258.462 189.731 261.867 192.082 265.427 194.179H265.491C261.356 207.168 252.617 218.034 243.245 227.786C240.545 230.625 237.774 233.35 234.989 236.083C234.079 236.984 235.486 238.382 236.41 237.502C246.357 227.743 256.404 217.629 262.997 205.195C264.842 201.722 266.361 198.087 267.538 194.335C270.122 194.517 272.709 194.028 275.048 192.916C277.783 191.496 279.169 188.977 280.263 186.202C282.444 180.652 283.197 173.526 278.082 169.374C278.299 169.254 278.465 169.06 278.551 168.827C280.604 163.263 282.856 157.365 287.077 153.064C289.314 150.864 292.059 149.248 295.07 148.358C298.267 147.308 301.5 146.371 304.065 144.1C306.677 141.739 308.339 138.51 308.74 135.015C308.918 133.688 306.929 133.702 306.779 134.951Z" fill="black"/>
<path d="M107.302 172.234C101.447 185.265 96.1184 198.514 91.3153 211.98C89.9606 215.798 88.6485 219.628 87.3791 223.471C86.9741 224.684 88.8925 225.209 89.2903 223.996C93.7334 210.567 98.707 197.319 104.211 184.25C105.774 180.545 107.382 176.859 109.036 173.192C109.526 172.085 107.821 171.077 107.302 172.234Z" fill="black"/>
<path d="M2.13155 333.9H0L0.0426309 250.185H169.145V252.315H2.17418L2.13155 333.9Z" fill="black"/>
<path d="M96.957 250.462C95.3908 247.797 94.0412 245.011 92.9212 242.13C91.887 239.218 91.1723 236.203 90.7897 233.137C90.6334 231.888 88.6581 231.867 88.8074 233.137C89.1931 236.38 89.9292 239.571 91.0028 242.655C92.0246 245.761 93.4584 248.716 95.2659 251.442C95.396 251.666 95.6097 251.829 95.8603 251.895C96.1108 251.962 96.3775 251.926 96.6017 251.796C96.826 251.667 96.9894 251.453 97.056 251.203C97.1226 250.953 97.087 250.686 96.957 250.462Z" fill="black"/>
<path d="M377.817 289.037H278.096V286.198H374.975V212.221L258.926 211.781L258.933 208.942L377.817 209.389V289.037Z" fill="black"/>
</g>
</svg>
