<svg width="416" height="96" viewBox="0 0 416 96" fill="none" xmlns="http://www.w3.org/2000/svg">
<path d="M135.837 16.056H150.139C156.47 16.056 161.049 20.46 161.049 25.245C161.049 28.072 159.58 30.084 158.166 31.335C157.375 32.096 156.414 32.694 155.34 33.129L160.993 42.318H153.757L148.782 34.434H142.621V42.318H135.837V16.056ZM149.913 28.344C152.626 28.344 153.983 27.039 153.983 25.299C153.983 23.56 152.626 22.255 149.913 22.255H142.621V28.399H149.913V28.344Z" fill="black"/>
<path d="M165.572 16.056H186.884V22.2H172.355V25.898H184.17V32.041H172.355V36.228H186.884V42.372H165.572V16.056Z" fill="black"/>
<path d="M197.059 34.216C197.285 34.814 197.624 35.413 198.133 35.902C198.981 36.717 200.507 37.533 203.164 37.533C207.008 37.533 208.365 36.228 208.365 34.923C208.365 33.455 206.387 32.803 203.843 32.205L199.659 31.226C195.25 30.302 190.897 28.236 190.897 23.288C190.954 19.373 195.194 15.187 202.995 15.187C208.309 15.187 211.361 17.253 213.114 19.264C214.131 20.461 214.81 21.765 215.262 23.288H208.196C208.026 22.853 207.687 22.472 207.291 22.092C206.556 21.439 205.312 20.841 202.995 20.841C199.377 20.841 198.246 21.929 198.246 23.016C198.246 25.136 202.599 25.734 207.008 26.659C211.305 27.692 215.714 29.704 215.714 34.651C215.714 39.055 211.418 43.188 203.221 43.188C197.172 43.188 193.837 40.958 192.028 38.729C190.954 37.424 190.219 35.902 189.823 34.216H197.059Z" fill="black"/>
<path d="M220.01 16.056H226.794V31.172C226.794 34.651 229.281 37.098 232.899 37.098C236.517 37.098 239.004 34.706 239.004 31.172V16.056H245.788V31.172C245.788 38.349 240.813 43.188 232.842 43.188C224.928 43.188 219.897 38.349 219.897 31.172V16.056H220.01Z" fill="black"/>
<path d="M251.498 16.056H258.281V36.174H272.357V42.318H251.498V16.056Z" fill="black"/>
<path d="M269.644 16.056H295.026V22.2H285.755V42.318H278.971V22.2H269.7V16.056H269.644Z" fill="black"/>
<path d="M301.866 16.056H315.264L323.178 42.318H316.394L314.811 37.044H302.318L300.735 42.318H293.952L301.866 16.056ZM313.002 30.954L310.515 22.2H306.671L304.127 30.954H313.002Z" fill="black"/>
<path d="M326.343 16.056H337.48C346.92 16.056 352.912 21.874 352.912 29.214C352.912 36.609 346.92 42.372 337.536 42.372H326.343V16.056ZM337.706 36.228C342.737 36.228 345.62 33.401 345.62 29.214C345.62 25.028 342.737 22.2 337.706 22.2H333.183V36.228H337.706Z" fill="black"/>
<path d="M371.737 15.187C380.782 15.187 387.396 21.548 387.396 29.214C387.396 36.881 380.839 43.242 371.737 43.242C362.693 43.242 356.079 36.881 356.079 29.214C356.079 21.548 362.636 15.187 371.737 15.187ZM371.737 37.098C376.486 37.098 380.104 33.618 380.104 29.214C380.104 24.81 376.486 21.33 371.737 21.33C366.989 21.33 363.371 24.81 363.371 29.214C363.371 33.564 366.989 37.098 371.737 37.098Z" fill="black"/>
<path d="M397.345 34.216C397.571 34.814 397.911 35.413 398.419 35.902C399.267 36.717 400.794 37.533 403.45 37.533C407.295 37.533 408.651 36.228 408.651 34.923C408.651 33.455 406.673 32.803 404.129 32.205L399.946 31.226C395.536 30.302 391.183 28.236 391.183 23.288C391.183 19.373 395.423 15.187 403.224 15.187C408.538 15.187 411.591 17.253 413.343 19.264C414.361 20.461 415.039 21.765 415.491 23.288H408.482C408.312 22.853 407.973 22.472 407.577 22.092C406.842 21.439 405.599 20.841 403.281 20.841C399.663 20.841 398.532 21.929 398.532 23.016C398.532 25.136 402.885 25.734 407.295 26.659C411.591 27.692 416 29.704 416 34.651C416 39.055 411.704 43.188 403.507 43.188C397.458 43.188 394.123 40.958 392.314 38.729C391.24 37.424 390.505 35.902 390.109 34.216H397.345Z" fill="black"/>
<path d="M135.837 54.17H146.973C156.414 54.17 162.406 59.988 162.406 67.328C162.406 74.723 156.414 80.486 147.03 80.486H135.837V54.17ZM147.199 74.288C152.231 74.288 155.114 71.46 155.114 67.274C155.114 63.087 152.231 60.26 147.199 60.26H142.677V74.288H147.199Z" fill="black"/>
<path d="M166.929 54.17H173.712V80.432H166.929V54.17Z" fill="black"/>
<path d="M193.837 53.301C199.886 53.301 203.617 55.802 205.821 58.248C207.065 59.716 208.026 61.293 208.704 63.142H201.695C201.299 62.435 200.734 61.837 200.055 61.293C198.812 60.369 196.946 59.39 193.95 59.39C189.201 59.39 185.583 62.87 185.583 67.274C185.583 71.678 189.201 75.158 193.95 75.158C196.89 75.158 198.812 74.07 200.055 72.983C200.734 72.33 201.299 71.624 201.695 70.808H197.851V65.969H212.379V70.808H208.761C208.139 72.765 207.178 74.505 205.878 76.082C203.673 78.746 199.886 81.356 193.893 81.356C184.905 81.356 178.348 74.995 178.348 67.328C178.235 59.608 184.849 53.301 193.837 53.301Z" fill="black"/>
<path d="M215.431 54.17H222.215V80.432H215.431V54.17Z" fill="black"/>
<path d="M225.664 54.17H251.046V60.314H241.775V80.432H234.991V60.314H225.72V54.17H225.664Z" fill="black"/>
<path d="M257.885 54.17H271.283L279.197 80.432H272.414L270.831 75.158H258.338L256.755 80.432H249.971L257.885 54.17ZM268.965 69.068L266.478 60.314H262.634L260.147 69.068H268.965Z" fill="black"/>
<path d="M282.363 54.17H289.146V80.432H282.363V54.17Z" fill="black"/>
<path d="M300.509 72.33C300.735 72.928 301.075 73.527 301.583 74.016C302.431 74.831 303.958 75.647 306.615 75.647C310.459 75.647 311.815 74.342 311.815 73.037C311.815 71.569 309.837 70.917 307.293 70.319L303.11 69.34C298.7 68.416 294.348 66.35 294.348 61.402C294.348 57.487 298.587 53.301 306.388 53.301C311.702 53.301 314.755 55.367 316.507 57.378C317.525 58.575 318.203 59.879 318.655 61.402H311.646C311.476 60.967 311.137 60.586 310.741 60.206C310.006 59.553 308.763 58.955 306.445 58.955C302.827 58.955 301.696 60.043 301.696 61.13C301.696 63.25 306.049 63.849 310.459 64.773C314.755 65.806 319.164 67.818 319.164 72.765C319.164 77.169 314.868 81.302 306.671 81.302C300.622 81.302 297.287 79.072 295.478 76.843C294.404 75.538 293.669 74.016 293.273 72.33H300.509Z" fill="black"/>
<mask id="mask0_1_44" style="mask-type:luminance" maskUnits="userSpaceOnUse" x="0" y="0" width="118" height="96">
<path d="M117.725 0H0V96H117.725V0Z" fill="white"/>
</mask>
<g mask="url(#mask0_1_44)">
<path d="M87.5644 36.02L60.3623 77.97L69.6077 96L96.8099 54.049L87.5644 36.02Z" fill="#806EFF"/>
<path d="M27.2021 0L0 41.951L9.24543 59.98L36.4475 18.029L27.2021 0Z" fill="#806EFF"/>
<path d="M66.6492 36.02L78.319 18.029L70.8404 3.4959L69.0735 0L45.6928 36.02L18.4907 77.971L27.7362 96L54.9383 54.049L51.8976 48.079L45.6928 36.02H66.6492Z" fill="#806EFF"/>
<path d="M117.725 54.049L108.48 36.02H87.5646L96.81 54.049L69.6079 96H90.5231L117.725 54.049Z" fill="black"/>
<path d="M57.3629 18.029L48.1175 0H27.2023L36.4477 18.029L9.24561 59.98H30.1608L57.3629 18.029Z" fill="black"/>
<path d="M75.8948 54.049L99.2343 18.029L89.9889 0H69.0737L78.3191 18.029L66.6493 36.02H45.693L54.9384 54.049L27.7363 96H48.6926L72.0322 59.98L75.8948 54.049Z" fill="black"/>
</g>
</svg>
