<svg width="150" height="128" viewBox="0 0 150 128" fill="none" xmlns="http://www.w3.org/2000/svg">
<mask id="mask0_1_42" style="mask-type:luminance" maskUnits="userSpaceOnUse" x="0" y="0" width="150" height="128">
<path d="M150 0H0V128H150V0Z" fill="white"/>
</mask>
<g mask="url(#mask0_1_42)">
<path d="M111.571 48.026L76.911 103.961L88.691 128L123.351 72.065L111.571 48.026Z" fill="#806EFF"/>
<path d="M34.66 0L0 55.935L11.78 79.974L46.44 24.039L34.66 0Z" fill="#806EFF"/>
<path d="M84.921 48.026L99.79 24.039L90.262 4.6612L88.01 0L58.22 48.026L23.56 103.961L35.34 128L70 72.065L66.126 64.105L58.22 48.026H84.921Z" fill="#806EFF"/>
<path d="M150 72.065L138.22 48.026H111.571L123.351 72.065L88.691 128H115.34L150 72.065Z" fill="black"/>
<path d="M73.089 24.039L61.309 0H34.66L46.44 24.039L11.78 79.974H38.429L73.089 24.039Z" fill="black"/>
<path d="M96.702 72.065L126.44 24.039L114.66 0H88.011L99.791 24.039L84.921 48.026H58.22L70 72.065L35.34 128H62.042L91.78 79.974L96.702 72.065Z" fill="black"/>
</g>
</svg>
